<svg xmlns="http://www.w3.org/2000/svg" viewBox="0 0 1600 1000" preserveAspectRatio="xMidYMid slice" role="img" aria-label="Interior illustration 1">

  <defs>
    <linearGradient id="wall1" x1="0" y1="0" x2="0" y2="1">
      <stop offset="0" stop-color="#143C3D"/>
      <stop offset="1" stop-color="#0E2A2B"/>
    </linearGradient>
    <linearGradient id="floor1" x1="0" y1="0" x2="0" y2="1">
      <stop offset="0" stop-color="#7A5234"/>
      <stop offset="1" stop-color="#5A3A28"/>
    </linearGradient>
    <linearGradient id="brass1" x1="0" y1="0" x2="1" y2="1">
      <stop offset="0" stop-color="#E3C77A"/>
      <stop offset="0.5" stop-color="#C9A24B"/>
      <stop offset="1" stop-color="#9A7A2E"/>
    </linearGradient>
    <radialGradient id="glow1" cx="0.5" cy="0.45" r="0.55">
      <stop offset="0" stop-color="#FFF6DD" stop-opacity="0.55"/>
      <stop offset="0.45" stop-color="#FFF6DD" stop-opacity="0.12"/>
      <stop offset="1" stop-color="#FFF6DD" stop-opacity="0"/>
    </radialGradient>
    <pattern id="jaali1" width="56" height="56" patternUnits="userSpaceOnUse" patternTransform="rotate(0)">
      <rect width="56" height="56" fill="none"/>
      <path d="M28 2 L54 28 L28 54 L2 28 Z" fill="none" stroke="#C9A24B" stroke-opacity="0.5" stroke-width="1.4"/>
      <circle cx="28" cy="28" r="6" fill="none" stroke="#C9A24B" stroke-opacity="0.4" stroke-width="1.2"/>
      <path d="M28 14 L42 28 L28 42 L14 28 Z" fill="none" stroke="#C9A24B" stroke-opacity="0.3" stroke-width="1"/>
    </pattern>
    <filter id="soft1" x="-20%" y="-20%" width="140%" height="140%">
      <feGaussianBlur stdDeviation="6"/>
    </filter>
  
    <radialGradient id="vig" cx="0.5" cy="0.45" r="0.75">
      <stop offset="0.6" stop-color="#000000" stop-opacity="0"/>
      <stop offset="1" stop-color="#000000" stop-opacity="0.28"/>
    </radialGradient>
  </defs>
  <rect width="1600" height="1000" fill="url(#wall1)"/>
<rect x="0" y="660" width="1600" height="340" fill="url(#floor1)"/><line x1="80" y1="660" x2="-1720" y2="1000" stroke="#000000" stroke-opacity="0.06" stroke-width="2"/><line x1="200" y1="660" x2="-1300" y2="1000" stroke="#000000" stroke-opacity="0.06" stroke-width="2"/><line x1="320" y1="660" x2="-880" y2="1000" stroke="#000000" stroke-opacity="0.06" stroke-width="2"/><line x1="440" y1="660" x2="-460" y2="1000" stroke="#000000" stroke-opacity="0.06" stroke-width="2"/><line x1="560" y1="660" x2="-40" y2="1000" stroke="#000000" stroke-opacity="0.06" stroke-width="2"/><line x1="680" y1="660" x2="380" y2="1000" stroke="#000000" stroke-opacity="0.06" stroke-width="2"/><line x1="800" y1="660" x2="800" y2="1000" stroke="#000000" stroke-opacity="0.06" stroke-width="2"/><line x1="920" y1="660" x2="1220" y2="1000" stroke="#000000" stroke-opacity="0.06" stroke-width="2"/><line x1="1040" y1="660" x2="1640" y2="1000" stroke="#000000" stroke-opacity="0.06" stroke-width="2"/><line x1="1160" y1="660" x2="2060" y2="1000" stroke="#000000" stroke-opacity="0.06" stroke-width="2"/><line x1="1280" y1="660" x2="2480" y2="1000" stroke="#000000" stroke-opacity="0.06" stroke-width="2"/><line x1="1400" y1="660" x2="2900" y2="1000" stroke="#000000" stroke-opacity="0.06" stroke-width="2"/><line x1="1520" y1="660" x2="3320" y2="1000" stroke="#000000" stroke-opacity="0.06" stroke-width="2"/><rect x="980" y="120" width="360" height="430" fill="#0E2A2B" opacity="0.0"/><rect x="980" y="120" width="360" height="430" fill="url(#jaali1)" opacity="0.9"/><rect x="980" y="120" width="360" height="430" fill="none" stroke="url(#brass1)" stroke-width="4"/><rect x="250" y="150" width="300" height="360" fill="#1C5152"/><rect x="250" y="150" width="300" height="360" fill="none" stroke="url(#brass1)" stroke-width="6"/><path d="M270 480 Q400 220 530 480 Z" fill="#7C2D34" opacity="0.55"/><line x1="760" y1="0" x2="760" y2="150" stroke="#9A7A2E" stroke-width="3"/><ellipse cx="760" cy="150" rx="34" ry="23.799999999999997" fill="url(#brass1)"/><ellipse cx="760" cy="156" rx="23.799999999999997" ry="17.0" fill="#FFF3CF" opacity="0.8"/><ellipse cx="700" cy="800" rx="380.0" ry="75.0" fill="#9E3B43" opacity="0.9"/><ellipse cx="700" cy="800" rx="358.0" ry="59.0" fill="none" stroke="url(#brass1)" stroke-width="3" opacity="0.7"/><rect x="360" y="560" width="540" height="150" rx="26" fill="#7C2D34" /><rect x="360" y="520" width="540" height="90" rx="26" fill="#9E3B43" /><rect x="384" y="470" width="92" height="92" rx="16" fill="#E3C77A" opacity="0.92"/><rect x="514" y="470" width="92" height="92" rx="16" fill="#E3C77A" opacity="0.92"/><rect x="644" y="470" width="92" height="92" rx="16" fill="#E3C77A" opacity="0.92"/><rect x="774" y="470" width="92" height="92" rx="16" fill="#E3C77A" opacity="0.92"/><rect x="330" y="560" width="60" height="170" rx="14" fill="#7A5234" /><rect x="870" y="560" width="60" height="170" rx="14" fill="#7A5234" /><rect x="560" y="720" width="220" height="70" rx="10" fill="#7A5234" /><line x1="560" y1="792" x2="560" y2="860" stroke="url(#brass1)" stroke-width="8"/><line x1="776" y1="792" x2="776" y2="860" stroke="url(#brass1)" stroke-width="8"/><rect x="1154" y="714" width="52" height="58" rx="8" fill="#7C2D34"/><rect x="1154" y="714" width="52" height="14" rx="6" fill="#9E3B43"/><path d="M1180 714 Q 1090 574.0 1128 544" stroke="#7E8C6A" stroke-width="9" fill="none" stroke-linecap="round"/><path d="M1180 714 Q 1120 574.0 1143 534" stroke="#7E8C6A" stroke-width="9" fill="none" stroke-linecap="round"/><path d="M1180 714 Q 1150 574.0 1161 524" stroke="#7E8C6A" stroke-width="9" fill="none" stroke-linecap="round"/><path d="M1180 714 Q 1180 574.0 1180 514" stroke="#7E8C6A" stroke-width="9" fill="none" stroke-linecap="round"/><path d="M1180 714 Q 1210 574.0 1199 524" stroke="#7E8C6A" stroke-width="9" fill="none" stroke-linecap="round"/><path d="M1180 714 Q 1240 574.0 1217 534" stroke="#7E8C6A" stroke-width="9" fill="none" stroke-linecap="round"/><path d="M1180 714 Q 1270 574.0 1232 544" stroke="#7E8C6A" stroke-width="9" fill="none" stroke-linecap="round"/><rect x="124" y="714" width="52" height="58" rx="8" fill="#7C2D34"/><rect x="124" y="714" width="52" height="14" rx="6" fill="#9E3B43"/><path d="M150 714 Q 60 588.0 98 564" stroke="#7E8C6A" stroke-width="9" fill="none" stroke-linecap="round"/><path d="M150 714 Q 90 588.0 113 554" stroke="#7E8C6A" stroke-width="9" fill="none" stroke-linecap="round"/><path d="M150 714 Q 120 588.0 131 544" stroke="#7E8C6A" stroke-width="9" fill="none" stroke-linecap="round"/><path d="M150 714 Q 150 588.0 150 534" stroke="#7E8C6A" stroke-width="9" fill="none" stroke-linecap="round"/><path d="M150 714 Q 180 588.0 169 544" stroke="#7E8C6A" stroke-width="9" fill="none" stroke-linecap="round"/><path d="M150 714 Q 210 588.0 187 554" stroke="#7E8C6A" stroke-width="9" fill="none" stroke-linecap="round"/><path d="M150 714 Q 240 588.0 202 564" stroke="#7E8C6A" stroke-width="9" fill="none" stroke-linecap="round"/>
<ellipse cx="760" cy="260" rx="186" ry="130" fill="url(#glow1)" opacity="0.7"/>

  <rect x="0" y="0" width="1600" height="1000" fill="url(#vig)"/>

  <g opacity="0.16" font-family="Georgia, 'Times New Roman', serif">
    <text x="1560" y="954" text-anchor="end" font-size="190" font-weight="700"
          fill="#FFFFFF" opacity="0.5">1</text>
  </g>
  <g opacity="0.5" font-family="Georgia, serif">
    <rect x="36" y="942" width="234" height="36" rx="18" fill="#000000" opacity="0.22"/>
    <text x="52" y="967" font-size="19" letter-spacing="3" fill="#F6F1E7">VENKATESHWARA &#8226; 1</text>
  </g>
</svg>