<svg xmlns="http://www.w3.org/2000/svg" viewBox="0 0 1600 1000" preserveAspectRatio="xMidYMid slice" role="img" aria-label="Interior illustration 10">

  <defs>
    <linearGradient id="wall10" x1="0" y1="0" x2="0" y2="1">
      <stop offset="0" stop-color="#143C3D"/>
      <stop offset="1" stop-color="#0E2A2B"/>
    </linearGradient>
    <linearGradient id="floor10" x1="0" y1="0" x2="0" y2="1">
      <stop offset="0" stop-color="#7A5234"/>
      <stop offset="1" stop-color="#5A3A28"/>
    </linearGradient>
    <linearGradient id="brass10" x1="0" y1="0" x2="1" y2="1">
      <stop offset="0" stop-color="#E3C77A"/>
      <stop offset="0.5" stop-color="#C9A24B"/>
      <stop offset="1" stop-color="#9A7A2E"/>
    </linearGradient>
    <radialGradient id="glow10" cx="0.5" cy="0.45" r="0.55">
      <stop offset="0" stop-color="#FFF6DD" stop-opacity="0.55"/>
      <stop offset="0.45" stop-color="#FFF6DD" stop-opacity="0.12"/>
      <stop offset="1" stop-color="#FFF6DD" stop-opacity="0"/>
    </radialGradient>
    <pattern id="jaali10" width="56" height="56" patternUnits="userSpaceOnUse" patternTransform="rotate(0)">
      <rect width="56" height="56" fill="none"/>
      <path d="M28 2 L54 28 L28 54 L2 28 Z" fill="none" stroke="#C9A24B" stroke-opacity="0.5" stroke-width="1.4"/>
      <circle cx="28" cy="28" r="6" fill="none" stroke="#C9A24B" stroke-opacity="0.4" stroke-width="1.2"/>
      <path d="M28 14 L42 28 L28 42 L14 28 Z" fill="none" stroke="#C9A24B" stroke-opacity="0.3" stroke-width="1"/>
    </pattern>
    <filter id="soft10" x="-20%" y="-20%" width="140%" height="140%">
      <feGaussianBlur stdDeviation="6"/>
    </filter>
  
    <radialGradient id="vig" cx="0.5" cy="0.45" r="0.75">
      <stop offset="0.6" stop-color="#000000" stop-opacity="0"/>
      <stop offset="1" stop-color="#000000" stop-opacity="0.28"/>
    </radialGradient>
  </defs>
  <rect width="1600" height="1000" fill="url(#wall10)"/>
<rect x="0" y="700" width="1600" height="300" fill="url(#floor10)"/><line x1="80" y1="700" x2="-1720" y2="1000" stroke="#000000" stroke-opacity="0.06" stroke-width="2"/><line x1="200" y1="700" x2="-1300" y2="1000" stroke="#000000" stroke-opacity="0.06" stroke-width="2"/><line x1="320" y1="700" x2="-880" y2="1000" stroke="#000000" stroke-opacity="0.06" stroke-width="2"/><line x1="440" y1="700" x2="-460" y2="1000" stroke="#000000" stroke-opacity="0.06" stroke-width="2"/><line x1="560" y1="700" x2="-40" y2="1000" stroke="#000000" stroke-opacity="0.06" stroke-width="2"/><line x1="680" y1="700" x2="380" y2="1000" stroke="#000000" stroke-opacity="0.06" stroke-width="2"/><line x1="800" y1="700" x2="800" y2="1000" stroke="#000000" stroke-opacity="0.06" stroke-width="2"/><line x1="920" y1="700" x2="1220" y2="1000" stroke="#000000" stroke-opacity="0.06" stroke-width="2"/><line x1="1040" y1="700" x2="1640" y2="1000" stroke="#000000" stroke-opacity="0.06" stroke-width="2"/><line x1="1160" y1="700" x2="2060" y2="1000" stroke="#000000" stroke-opacity="0.06" stroke-width="2"/><line x1="1280" y1="700" x2="2480" y2="1000" stroke="#000000" stroke-opacity="0.06" stroke-width="2"/><line x1="1400" y1="700" x2="2900" y2="1000" stroke="#000000" stroke-opacity="0.06" stroke-width="2"/><line x1="1520" y1="700" x2="3320" y2="1000" stroke="#000000" stroke-opacity="0.06" stroke-width="2"/><rect x="1040" y="140" width="400" height="440" fill="#0E2A2B" opacity="0.0"/><rect x="1040" y="140" width="400" height="440" fill="url(#jaali10)" opacity="0.85"/><rect x="1040" y="140" width="400" height="440" fill="none" stroke="url(#brass10)" stroke-width="4"/><rect x="220" y="170" width="360" height="300" fill="#1C5152"/><rect x="220" y="170" width="360" height="300" fill="none" stroke="url(#brass10)" stroke-width="6"/><circle cx="400" cy="320" r="90" fill="#7C2D34" opacity="0.5"/><line x1="600" y1="0" x2="600" y2="170" stroke="#9A7A2E" stroke-width="3"/><ellipse cx="600" cy="170" rx="26" ry="18.2" fill="url(#brass10)"/><ellipse cx="600" cy="176" rx="18.2" ry="13.0" fill="#FFF3CF" opacity="0.8"/><line x1="800" y1="0" x2="800" y2="170" stroke="#9A7A2E" stroke-width="3"/><ellipse cx="800" cy="170" rx="26" ry="18.2" fill="url(#brass10)"/><ellipse cx="800" cy="176" rx="18.2" ry="13.0" fill="#FFF3CF" opacity="0.8"/><line x1="1000" y1="0" x2="1000" y2="170" stroke="#9A7A2E" stroke-width="3"/><ellipse cx="1000" cy="170" rx="26" ry="18.2" fill="url(#brass10)"/><ellipse cx="1000" cy="176" rx="18.2" ry="13.0" fill="#FFF3CF" opacity="0.8"/><ellipse cx="800" cy="700" rx="430" ry="120" fill="#5A3A28"/><ellipse cx="800" cy="676" rx="430" ry="120" fill="#7A5234"/><ellipse cx="800" cy="668" rx="380" ry="96" fill="#EAE2D2" opacity="0.55"/><rect x="424" y="560" width="92" height="60" rx="10" fill="#7C2D34" /><rect x="424" y="430" width="92" height="150" rx="14" fill="#9E3B43" /><rect x="594" y="560" width="92" height="60" rx="10" fill="#7C2D34" /><rect x="594" y="430" width="92" height="150" rx="14" fill="#9E3B43" /><rect x="754" y="560" width="92" height="60" rx="10" fill="#7C2D34" /><rect x="754" y="430" width="92" height="150" rx="14" fill="#9E3B43" /><rect x="914" y="560" width="92" height="60" rx="10" fill="#7C2D34" /><rect x="914" y="430" width="92" height="150" rx="14" fill="#9E3B43" /><rect x="1084" y="560" width="92" height="60" rx="10" fill="#7C2D34" /><rect x="1084" y="430" width="92" height="150" rx="14" fill="#9E3B43" /><rect x="760" y="600" width="80" height="60" rx="8" fill="url(#brass10)"/><rect x="774" y="614" width="52" height="58" rx="8" fill="#7C2D34"/><rect x="774" y="614" width="52" height="14" rx="6" fill="#9E3B43"/><path d="M800 614 Q 710 537.0 748 534" stroke="#7E8C6A" stroke-width="9" fill="none" stroke-linecap="round"/><path d="M800 614 Q 740 537.0 763 524" stroke="#7E8C6A" stroke-width="9" fill="none" stroke-linecap="round"/><path d="M800 614 Q 770 537.0 781 514" stroke="#7E8C6A" stroke-width="9" fill="none" stroke-linecap="round"/><path d="M800 614 Q 800 537.0 800 504" stroke="#7E8C6A" stroke-width="9" fill="none" stroke-linecap="round"/><path d="M800 614 Q 830 537.0 819 514" stroke="#7E8C6A" stroke-width="9" fill="none" stroke-linecap="round"/><path d="M800 614 Q 860 537.0 837 524" stroke="#7E8C6A" stroke-width="9" fill="none" stroke-linecap="round"/><path d="M800 614 Q 890 537.0 852 534" stroke="#7E8C6A" stroke-width="9" fill="none" stroke-linecap="round"/>
<ellipse cx="800" cy="300" rx="223" ry="156" fill="url(#glow10)" opacity="0.7"/>

  <rect x="0" y="0" width="1600" height="1000" fill="url(#vig)"/>

  <g opacity="0.16" font-family="Georgia, 'Times New Roman', serif">
    <text x="1560" y="954" text-anchor="end" font-size="190" font-weight="700"
          fill="#FFFFFF" opacity="0.5">10</text>
  </g>
  <g opacity="0.5" font-family="Georgia, serif">
    <rect x="36" y="942" width="234" height="36" rx="18" fill="#000000" opacity="0.22"/>
    <text x="52" y="967" font-size="19" letter-spacing="3" fill="#F6F1E7">VENKATESHWARA &#8226; 10</text>
  </g>
</svg>