<svg xmlns="http://www.w3.org/2000/svg" viewBox="0 0 1600 1000" preserveAspectRatio="xMidYMid slice" role="img" aria-label="Interior illustration 11">

  <defs>
    <linearGradient id="wall11" x1="0" y1="0" x2="0" y2="1">
      <stop offset="0" stop-color="#173A45"/>
      <stop offset="1" stop-color="#0E2A2B"/>
    </linearGradient>
    <linearGradient id="floor11" x1="0" y1="0" x2="0" y2="1">
      <stop offset="0" stop-color="#5A4632"/>
      <stop offset="1" stop-color="#3C2E20"/>
    </linearGradient>
    <linearGradient id="brass11" x1="0" y1="0" x2="1" y2="1">
      <stop offset="0" stop-color="#E3C77A"/>
      <stop offset="0.5" stop-color="#C9A24B"/>
      <stop offset="1" stop-color="#9A7A2E"/>
    </linearGradient>
    <radialGradient id="glow11" cx="0.5" cy="0.45" r="0.55">
      <stop offset="0" stop-color="#FFF6DD" stop-opacity="0.55"/>
      <stop offset="0.45" stop-color="#FFF6DD" stop-opacity="0.12"/>
      <stop offset="1" stop-color="#FFF6DD" stop-opacity="0"/>
    </radialGradient>
    <pattern id="jaali11" width="56" height="56" patternUnits="userSpaceOnUse" patternTransform="rotate(0)">
      <rect width="56" height="56" fill="none"/>
      <path d="M28 2 L54 28 L28 54 L2 28 Z" fill="none" stroke="#C9A24B" stroke-opacity="0.5" stroke-width="1.4"/>
      <circle cx="28" cy="28" r="6" fill="none" stroke="#C9A24B" stroke-opacity="0.4" stroke-width="1.2"/>
      <path d="M28 14 L42 28 L28 42 L14 28 Z" fill="none" stroke="#C9A24B" stroke-opacity="0.3" stroke-width="1"/>
    </pattern>
    <filter id="soft11" x="-20%" y="-20%" width="140%" height="140%">
      <feGaussianBlur stdDeviation="6"/>
    </filter>
  
    <radialGradient id="vig" cx="0.5" cy="0.45" r="0.75">
      <stop offset="0.6" stop-color="#000000" stop-opacity="0"/>
      <stop offset="1" stop-color="#000000" stop-opacity="0.28"/>
    </radialGradient>
  </defs>
  <rect width="1600" height="1000" fill="url(#wall11)"/>
<rect x="0" y="720" width="1600" height="280" fill="url(#floor11)"/><line x1="80" y1="720" x2="-1720" y2="1000" stroke="#000000" stroke-opacity="0.06" stroke-width="2"/><line x1="200" y1="720" x2="-1300" y2="1000" stroke="#000000" stroke-opacity="0.06" stroke-width="2"/><line x1="320" y1="720" x2="-880" y2="1000" stroke="#000000" stroke-opacity="0.06" stroke-width="2"/><line x1="440" y1="720" x2="-460" y2="1000" stroke="#000000" stroke-opacity="0.06" stroke-width="2"/><line x1="560" y1="720" x2="-40" y2="1000" stroke="#000000" stroke-opacity="0.06" stroke-width="2"/><line x1="680" y1="720" x2="380" y2="1000" stroke="#000000" stroke-opacity="0.06" stroke-width="2"/><line x1="800" y1="720" x2="800" y2="1000" stroke="#000000" stroke-opacity="0.06" stroke-width="2"/><line x1="920" y1="720" x2="1220" y2="1000" stroke="#000000" stroke-opacity="0.06" stroke-width="2"/><line x1="1040" y1="720" x2="1640" y2="1000" stroke="#000000" stroke-opacity="0.06" stroke-width="2"/><line x1="1160" y1="720" x2="2060" y2="1000" stroke="#000000" stroke-opacity="0.06" stroke-width="2"/><line x1="1280" y1="720" x2="2480" y2="1000" stroke="#000000" stroke-opacity="0.06" stroke-width="2"/><line x1="1400" y1="720" x2="2900" y2="1000" stroke="#000000" stroke-opacity="0.06" stroke-width="2"/><line x1="1520" y1="720" x2="3320" y2="1000" stroke="#000000" stroke-opacity="0.06" stroke-width="2"/><rect x="140" y="120" width="1320" height="600" rx="8" fill="#5A3A28" /><rect x="160" y="140" width="200" height="560" rx="6" fill="#7A5E40" /><rect x="160" y="140" width="200" height="560" rx="6" fill="none" stroke="url(#brass11)" stroke-width="2" opacity="0.5"/><rect x="252" y="320" width="16" height="160" rx="8" fill="url(#brass11)"/><rect x="378" y="140" width="200" height="560" rx="6" fill="#6A5238" /><rect x="378" y="140" width="200" height="560" rx="6" fill="none" stroke="url(#brass11)" stroke-width="2" opacity="0.5"/><rect x="470" y="320" width="16" height="160" rx="8" fill="url(#brass11)"/><rect x="596" y="140" width="200" height="560" rx="6" fill="#7A5E40" /><rect x="596" y="140" width="200" height="560" rx="6" fill="none" stroke="url(#brass11)" stroke-width="2" opacity="0.5"/><rect x="688" y="320" width="16" height="160" rx="8" fill="url(#brass11)"/><rect x="814" y="140" width="200" height="560" rx="6" fill="#6A5238" /><rect x="814" y="140" width="200" height="560" rx="6" fill="none" stroke="url(#brass11)" stroke-width="2" opacity="0.5"/><rect x="906" y="320" width="16" height="160" rx="8" fill="url(#brass11)"/><rect x="1032" y="140" width="200" height="560" rx="6" fill="#7A5E40" /><rect x="1032" y="140" width="200" height="560" rx="6" fill="none" stroke="url(#brass11)" stroke-width="2" opacity="0.5"/><rect x="1124" y="320" width="16" height="160" rx="8" fill="url(#brass11)"/><rect x="1250" y="140" width="200" height="560" rx="6" fill="#6A5238" /><rect x="1250" y="140" width="200" height="560" rx="6" fill="none" stroke="url(#brass11)" stroke-width="2" opacity="0.5"/><rect x="1342" y="320" width="16" height="160" rx="8" fill="url(#brass11)"/><rect x="596" y="140" width="200" height="560" rx="6" fill="#2A2620" /><rect x="612" y="170" width="168" height="16" rx="0" fill="#C9A24B" /><rect x="630" y="186" width="22" height="170" rx="6" fill="#4A2740" /><rect x="662" y="186" width="22" height="170" rx="6" fill="#7C2D34" /><rect x="694" y="186" width="22" height="170" rx="6" fill="#4A2740" /><rect x="726" y="186" width="22" height="170" rx="6" fill="#7C2D34" /><rect x="758" y="186" width="22" height="170" rx="6" fill="#1C5152" /><rect x="1500" y="0" width="0" height="0" rx="0" fill="none" /><rect x="620" y="560" width="360" height="30" rx="8" fill="#14201F" /><rect x="700" y="590" width="40" height="120" rx="0" fill="#7A5234" /><rect x="860" y="590" width="40" height="120" rx="0" fill="#7A5234" /><line x1="800" y1="0" x2="800" y2="150" stroke="#9A7A2E" stroke-width="3"/><ellipse cx="800" cy="150" rx="24" ry="16.799999999999997" fill="url(#brass11)"/><ellipse cx="800" cy="156" rx="16.799999999999997" ry="12.0" fill="#FFF3CF" opacity="0.8"/>
<ellipse cx="696" cy="400" rx="124" ry="87" fill="url(#glow11)" opacity="0.7"/>

  <rect x="0" y="0" width="1600" height="1000" fill="url(#vig)"/>

  <g opacity="0.16" font-family="Georgia, 'Times New Roman', serif">
    <text x="1560" y="954" text-anchor="end" font-size="190" font-weight="700"
          fill="#FFFFFF" opacity="0.5">11</text>
  </g>
  <g opacity="0.5" font-family="Georgia, serif">
    <rect x="36" y="942" width="234" height="36" rx="18" fill="#000000" opacity="0.22"/>
    <text x="52" y="967" font-size="19" letter-spacing="3" fill="#F6F1E7">VENKATESHWARA &#8226; 11</text>
  </g>
</svg>