<svg xmlns="http://www.w3.org/2000/svg" viewBox="0 0 1600 1000" preserveAspectRatio="xMidYMid slice" role="img" aria-label="Interior illustration 12">

  <defs>
    <linearGradient id="wall12" x1="0" y1="0" x2="0" y2="1">
      <stop offset="0" stop-color="#1E5A66"/>
      <stop offset="1" stop-color="#143C46"/>
    </linearGradient>
    <linearGradient id="floor12" x1="0" y1="0" x2="0" y2="1">
      <stop offset="0" stop-color="#6A5238"/>
      <stop offset="1" stop-color="#4A3826"/>
    </linearGradient>
    <linearGradient id="brass12" x1="0" y1="0" x2="1" y2="1">
      <stop offset="0" stop-color="#E3C77A"/>
      <stop offset="0.5" stop-color="#C9A24B"/>
      <stop offset="1" stop-color="#9A7A2E"/>
    </linearGradient>
    <radialGradient id="glow12" cx="0.5" cy="0.45" r="0.55">
      <stop offset="0" stop-color="#FFF6DD" stop-opacity="0.55"/>
      <stop offset="0.45" stop-color="#FFF6DD" stop-opacity="0.12"/>
      <stop offset="1" stop-color="#FFF6DD" stop-opacity="0"/>
    </radialGradient>
    <pattern id="jaali12" width="56" height="56" patternUnits="userSpaceOnUse" patternTransform="rotate(0)">
      <rect width="56" height="56" fill="none"/>
      <path d="M28 2 L54 28 L28 54 L2 28 Z" fill="none" stroke="#C9A24B" stroke-opacity="0.5" stroke-width="1.4"/>
      <circle cx="28" cy="28" r="6" fill="none" stroke="#C9A24B" stroke-opacity="0.4" stroke-width="1.2"/>
      <path d="M28 14 L42 28 L28 42 L14 28 Z" fill="none" stroke="#C9A24B" stroke-opacity="0.3" stroke-width="1"/>
    </pattern>
    <filter id="soft12" x="-20%" y="-20%" width="140%" height="140%">
      <feGaussianBlur stdDeviation="6"/>
    </filter>
  
    <radialGradient id="vig" cx="0.5" cy="0.45" r="0.75">
      <stop offset="0.6" stop-color="#000000" stop-opacity="0"/>
      <stop offset="1" stop-color="#000000" stop-opacity="0.28"/>
    </radialGradient>
  </defs>
  <rect width="1600" height="1000" fill="url(#wall12)"/>
<rect x="0" y="700" width="1600" height="300" fill="url(#floor12)"/><line x1="80" y1="700" x2="-1720" y2="1000" stroke="#000000" stroke-opacity="0.06" stroke-width="2"/><line x1="200" y1="700" x2="-1300" y2="1000" stroke="#000000" stroke-opacity="0.06" stroke-width="2"/><line x1="320" y1="700" x2="-880" y2="1000" stroke="#000000" stroke-opacity="0.06" stroke-width="2"/><line x1="440" y1="700" x2="-460" y2="1000" stroke="#000000" stroke-opacity="0.06" stroke-width="2"/><line x1="560" y1="700" x2="-40" y2="1000" stroke="#000000" stroke-opacity="0.06" stroke-width="2"/><line x1="680" y1="700" x2="380" y2="1000" stroke="#000000" stroke-opacity="0.06" stroke-width="2"/><line x1="800" y1="700" x2="800" y2="1000" stroke="#000000" stroke-opacity="0.06" stroke-width="2"/><line x1="920" y1="700" x2="1220" y2="1000" stroke="#000000" stroke-opacity="0.06" stroke-width="2"/><line x1="1040" y1="700" x2="1640" y2="1000" stroke="#000000" stroke-opacity="0.06" stroke-width="2"/><line x1="1160" y1="700" x2="2060" y2="1000" stroke="#000000" stroke-opacity="0.06" stroke-width="2"/><line x1="1280" y1="700" x2="2480" y2="1000" stroke="#000000" stroke-opacity="0.06" stroke-width="2"/><line x1="1400" y1="700" x2="2900" y2="1000" stroke="#000000" stroke-opacity="0.06" stroke-width="2"/><line x1="1520" y1="700" x2="3320" y2="1000" stroke="#000000" stroke-opacity="0.06" stroke-width="2"/><ellipse cx="300" cy="200" rx="70" ry="49.0" fill="#F6F1E7" opacity="0.85"/><ellipse cx="420" cy="230" rx="50" ry="35.0" fill="#F6F1E7" opacity="0.85"/><ellipse cx="1200" cy="180" rx="60" ry="42.0" fill="#F6F1E7" opacity="0.85"/><ellipse cx="1320" cy="210" rx="46" ry="32.199999999999996" fill="#F6F1E7" opacity="0.85"/><path d="M1372 362 l3 7 7 0 -6 5 3 8 -7 -5 -7 5 3 -8 -6 -5 7 0 Z" fill="#E3C77A" opacity="0.8"/><path d="M580 193 l3 7 7 0 -6 5 3 8 -7 -5 -7 5 3 -8 -6 -5 7 0 Z" fill="#E3C77A" opacity="0.8"/><path d="M153 126 l3 7 7 0 -6 5 3 8 -7 -5 -7 5 3 -8 -6 -5 7 0 Z" fill="#E3C77A" opacity="0.8"/><path d="M835 288 l3 7 7 0 -6 5 3 8 -7 -5 -7 5 3 -8 -6 -5 7 0 Z" fill="#E3C77A" opacity="0.8"/><path d="M593 273 l3 7 7 0 -6 5 3 8 -7 -5 -7 5 3 -8 -6 -5 7 0 Z" fill="#E3C77A" opacity="0.8"/><path d="M403 157 l3 7 7 0 -6 5 3 8 -7 -5 -7 5 3 -8 -6 -5 7 0 Z" fill="#E3C77A" opacity="0.8"/><path d="M486 225 l3 7 7 0 -6 5 3 8 -7 -5 -7 5 3 -8 -6 -5 7 0 Z" fill="#E3C77A" opacity="0.8"/><path d="M336 120 l3 7 7 0 -6 5 3 8 -7 -5 -7 5 3 -8 -6 -5 7 0 Z" fill="#E3C77A" opacity="0.8"/><path d="M345 311 l3 7 7 0 -6 5 3 8 -7 -5 -7 5 3 -8 -6 -5 7 0 Z" fill="#E3C77A" opacity="0.8"/><path d="M952 305 l3 7 7 0 -6 5 3 8 -7 -5 -7 5 3 -8 -6 -5 7 0 Z" fill="#E3C77A" opacity="0.8"/><path d="M728 397 l3 7 7 0 -6 5 3 8 -7 -5 -7 5 3 -8 -6 -5 7 0 Z" fill="#E3C77A" opacity="0.8"/><path d="M329 331 l3 7 7 0 -6 5 3 8 -7 -5 -7 5 3 -8 -6 -5 7 0 Z" fill="#E3C77A" opacity="0.8"/><path d="M1093 197 l3 7 7 0 -6 5 3 8 -7 -5 -7 5 3 -8 -6 -5 7 0 Z" fill="#E3C77A" opacity="0.8"/><path d="M175 168 l3 7 7 0 -6 5 3 8 -7 -5 -7 5 3 -8 -6 -5 7 0 Z" fill="#E3C77A" opacity="0.8"/><path d="M797 284 l3 7 7 0 -6 5 3 8 -7 -5 -7 5 3 -8 -6 -5 7 0 Z" fill="#E3C77A" opacity="0.8"/><path d="M883 403 l3 7 7 0 -6 5 3 8 -7 -5 -7 5 3 -8 -6 -5 7 0 Z" fill="#E3C77A" opacity="0.8"/><rect x="220" y="300" width="520" height="420" rx="14" fill="#7A5234" /><rect x="240" y="330" width="480" height="120" rx="12" fill="#7C2D34" /><rect x="240" y="560" width="480" height="120" rx="12" fill="#1C5152" /><rect x="280" y="300" width="80" height="150" rx="6" fill="none" stroke="url(#brass12)" stroke-width="8"/><rect x="380" y="300" width="80" height="150" rx="6" fill="none" stroke="url(#brass12)" stroke-width="8"/><rect x="900" y="360" width="460" height="360" rx="12" fill="#EAE2D2" /><rect x="920" y="410" width="420" height="14" rx="0" fill="#7A5234" /><circle cx="950" cy="384" r="24" fill="#1C5152"/><circle cx="1032" cy="384" r="24" fill="#7E8C6A"/><circle cx="1114" cy="384" r="24" fill="#C9A24B"/><circle cx="1196" cy="384" r="24" fill="#1C5152"/><circle cx="1278" cy="384" r="24" fill="#7C2D34"/><rect x="920" y="520" width="420" height="14" rx="0" fill="#7A5234" /><circle cx="950" cy="494" r="24" fill="#1C5152"/><circle cx="1032" cy="494" r="24" fill="#1C5152"/><circle cx="1114" cy="494" r="24" fill="#7C2D34"/><circle cx="1196" cy="494" r="24" fill="#7C2D34"/><circle cx="1278" cy="494" r="24" fill="#7E8C6A"/><rect x="920" y="630" width="420" height="14" rx="0" fill="#7A5234" /><circle cx="950" cy="604" r="24" fill="#7C2D34"/><circle cx="1032" cy="604" r="24" fill="#7E8C6A"/><circle cx="1114" cy="604" r="24" fill="#7C2D34"/><circle cx="1196" cy="604" r="24" fill="#C9A24B"/><circle cx="1278" cy="604" r="24" fill="#1C5152"/><line x1="800" y1="0" x2="800" y2="150" stroke="#9A7A2E" stroke-width="3"/><ellipse cx="800" cy="150" rx="26" ry="18.2" fill="url(#brass12)"/><ellipse cx="800" cy="156" rx="18.2" ry="13.0" fill="#FFF3CF" opacity="0.8"/>
<ellipse cx="480" cy="420" rx="136" ry="95" fill="url(#glow12)" opacity="0.7"/>

  <rect x="0" y="0" width="1600" height="1000" fill="url(#vig)"/>

  <g opacity="0.16" font-family="Georgia, 'Times New Roman', serif">
    <text x="1560" y="954" text-anchor="end" font-size="190" font-weight="700"
          fill="#FFFFFF" opacity="0.5">12</text>
  </g>
  <g opacity="0.5" font-family="Georgia, serif">
    <rect x="36" y="942" width="234" height="36" rx="18" fill="#000000" opacity="0.22"/>
    <text x="52" y="967" font-size="19" letter-spacing="3" fill="#F6F1E7">VENKATESHWARA &#8226; 12</text>
  </g>
</svg>