<svg xmlns="http://www.w3.org/2000/svg" viewBox="0 0 1600 1000" preserveAspectRatio="xMidYMid slice" role="img" aria-label="Interior illustration 15">

  <defs>
    <linearGradient id="wall15" x1="0" y1="0" x2="0" y2="1">
      <stop offset="0" stop-color="#16413F"/>
      <stop offset="1" stop-color="#0E2A2B"/>
    </linearGradient>
    <linearGradient id="floor15" x1="0" y1="0" x2="0" y2="1">
      <stop offset="0" stop-color="#3A4A4C"/>
      <stop offset="1" stop-color="#222E2F"/>
    </linearGradient>
    <linearGradient id="brass15" x1="0" y1="0" x2="1" y2="1">
      <stop offset="0" stop-color="#E3C77A"/>
      <stop offset="0.5" stop-color="#C9A24B"/>
      <stop offset="1" stop-color="#9A7A2E"/>
    </linearGradient>
    <radialGradient id="glow15" cx="0.5" cy="0.45" r="0.55">
      <stop offset="0" stop-color="#FFF6DD" stop-opacity="0.55"/>
      <stop offset="0.45" stop-color="#FFF6DD" stop-opacity="0.12"/>
      <stop offset="1" stop-color="#FFF6DD" stop-opacity="0"/>
    </radialGradient>
    <pattern id="jaali15" width="56" height="56" patternUnits="userSpaceOnUse" patternTransform="rotate(0)">
      <rect width="56" height="56" fill="none"/>
      <path d="M28 2 L54 28 L28 54 L2 28 Z" fill="none" stroke="#C9A24B" stroke-opacity="0.5" stroke-width="1.4"/>
      <circle cx="28" cy="28" r="6" fill="none" stroke="#C9A24B" stroke-opacity="0.4" stroke-width="1.2"/>
      <path d="M28 14 L42 28 L28 42 L14 28 Z" fill="none" stroke="#C9A24B" stroke-opacity="0.3" stroke-width="1"/>
    </pattern>
    <filter id="soft15" x="-20%" y="-20%" width="140%" height="140%">
      <feGaussianBlur stdDeviation="6"/>
    </filter>
  
    <radialGradient id="vig" cx="0.5" cy="0.45" r="0.75">
      <stop offset="0.6" stop-color="#000000" stop-opacity="0"/>
      <stop offset="1" stop-color="#000000" stop-opacity="0.28"/>
    </radialGradient>
  </defs>
  <rect width="1600" height="1000" fill="url(#wall15)"/>
<rect x="0" y="720" width="1600" height="280" fill="url(#floor15)"/><line x1="80" y1="720" x2="-1720" y2="1000" stroke="#000000" stroke-opacity="0.06" stroke-width="2"/><line x1="200" y1="720" x2="-1300" y2="1000" stroke="#000000" stroke-opacity="0.06" stroke-width="2"/><line x1="320" y1="720" x2="-880" y2="1000" stroke="#000000" stroke-opacity="0.06" stroke-width="2"/><line x1="440" y1="720" x2="-460" y2="1000" stroke="#000000" stroke-opacity="0.06" stroke-width="2"/><line x1="560" y1="720" x2="-40" y2="1000" stroke="#000000" stroke-opacity="0.06" stroke-width="2"/><line x1="680" y1="720" x2="380" y2="1000" stroke="#000000" stroke-opacity="0.06" stroke-width="2"/><line x1="800" y1="720" x2="800" y2="1000" stroke="#000000" stroke-opacity="0.06" stroke-width="2"/><line x1="920" y1="720" x2="1220" y2="1000" stroke="#000000" stroke-opacity="0.06" stroke-width="2"/><line x1="1040" y1="720" x2="1640" y2="1000" stroke="#000000" stroke-opacity="0.06" stroke-width="2"/><line x1="1160" y1="720" x2="2060" y2="1000" stroke="#000000" stroke-opacity="0.06" stroke-width="2"/><line x1="1280" y1="720" x2="2480" y2="1000" stroke="#000000" stroke-opacity="0.06" stroke-width="2"/><line x1="1400" y1="720" x2="2900" y2="1000" stroke="#000000" stroke-opacity="0.06" stroke-width="2"/><line x1="1520" y1="720" x2="3320" y2="1000" stroke="#000000" stroke-opacity="0.06" stroke-width="2"/><rect x="120" y="120" width="1360" height="560" rx="10" fill="#0F3433" /><rect x="150" y="150" width="1300" height="500" fill="#0E2A2B" opacity="0.0"/><rect x="150" y="150" width="1300" height="500" fill="url(#jaali15)" opacity="0.35"/><rect x="150" y="150" width="1300" height="500" fill="none" stroke="url(#brass15)" stroke-width="4"/><rect x="440" y="210" width="720" height="140" rx="12" fill="#0B2B2A" /><text x="800" y="300" text-anchor="middle" font-family="Georgia, serif" font-size="60" letter-spacing="4" fill="url(#brass15)">SHOWROOM</text><path d="M620 720 L620 470 Q620 380 800 380 Q980 380 980 470 L980 720 Z" fill="#0A2625"/><path d="M620 470 Q620 380 800 380 Q980 380 980 470" fill="none" stroke="url(#brass15)" stroke-width="8"/><ellipse cx="800" cy="560" rx="120" ry="150" fill="url(#glow15)"/><line x1="800" y1="0" x2="800" y2="200" stroke="#9A7A2E" stroke-width="3"/><ellipse cx="800" cy="200" rx="22" ry="15.399999999999999" fill="url(#brass15)"/><ellipse cx="800" cy="206" rx="15.399999999999999" ry="11.0" fill="#FFF3CF" opacity="0.8"/><rect x="224" y="644" width="52" height="58" rx="8" fill="#7C2D34"/><rect x="224" y="644" width="52" height="14" rx="6" fill="#9E3B43"/><path d="M250 644 Q 160 504.0 198 474" stroke="#7E8C6A" stroke-width="9" fill="none" stroke-linecap="round"/><path d="M250 644 Q 190 504.0 213 464" stroke="#7E8C6A" stroke-width="9" fill="none" stroke-linecap="round"/><path d="M250 644 Q 220 504.0 231 454" stroke="#7E8C6A" stroke-width="9" fill="none" stroke-linecap="round"/><path d="M250 644 Q 250 504.0 250 444" stroke="#7E8C6A" stroke-width="9" fill="none" stroke-linecap="round"/><path d="M250 644 Q 280 504.0 269 454" stroke="#7E8C6A" stroke-width="9" fill="none" stroke-linecap="round"/><path d="M250 644 Q 310 504.0 287 464" stroke="#7E8C6A" stroke-width="9" fill="none" stroke-linecap="round"/><path d="M250 644 Q 340 504.0 302 474" stroke="#7E8C6A" stroke-width="9" fill="none" stroke-linecap="round"/><rect x="1324" y="644" width="52" height="58" rx="8" fill="#7C2D34"/><rect x="1324" y="644" width="52" height="14" rx="6" fill="#9E3B43"/><path d="M1350 644 Q 1260 504.0 1298 474" stroke="#7E8C6A" stroke-width="9" fill="none" stroke-linecap="round"/><path d="M1350 644 Q 1290 504.0 1313 464" stroke="#7E8C6A" stroke-width="9" fill="none" stroke-linecap="round"/><path d="M1350 644 Q 1320 504.0 1331 454" stroke="#7E8C6A" stroke-width="9" fill="none" stroke-linecap="round"/><path d="M1350 644 Q 1350 504.0 1350 444" stroke="#7E8C6A" stroke-width="9" fill="none" stroke-linecap="round"/><path d="M1350 644 Q 1380 504.0 1369 454" stroke="#7E8C6A" stroke-width="9" fill="none" stroke-linecap="round"/><path d="M1350 644 Q 1410 504.0 1387 464" stroke="#7E8C6A" stroke-width="9" fill="none" stroke-linecap="round"/><path d="M1350 644 Q 1440 504.0 1402 474" stroke="#7E8C6A" stroke-width="9" fill="none" stroke-linecap="round"/>
<ellipse cx="800" cy="420" rx="186" ry="130" fill="url(#glow15)" opacity="0.7"/>

  <rect x="0" y="0" width="1600" height="1000" fill="url(#vig)"/>

  <g opacity="0.16" font-family="Georgia, 'Times New Roman', serif">
    <text x="1560" y="954" text-anchor="end" font-size="190" font-weight="700"
          fill="#FFFFFF" opacity="0.5">15</text>
  </g>
  <g opacity="0.5" font-family="Georgia, serif">
    <rect x="36" y="942" width="234" height="36" rx="18" fill="#000000" opacity="0.22"/>
    <text x="52" y="967" font-size="19" letter-spacing="3" fill="#F6F1E7">VENKATESHWARA &#8226; 15</text>
  </g>
</svg>