<svg xmlns="http://www.w3.org/2000/svg" viewBox="0 0 1600 1000" preserveAspectRatio="xMidYMid slice" role="img" aria-label="Interior illustration 20">

  <defs>
    <linearGradient id="wall20" x1="0" y1="0" x2="0" y2="1">
      <stop offset="0" stop-color="#1B4140"/>
      <stop offset="1" stop-color="#0E2A2B"/>
    </linearGradient>
    <linearGradient id="floor20" x1="0" y1="0" x2="0" y2="1">
      <stop offset="0" stop-color="#6A4A30"/>
      <stop offset="1" stop-color="#4A3220"/>
    </linearGradient>
    <linearGradient id="brass20" x1="0" y1="0" x2="1" y2="1">
      <stop offset="0" stop-color="#E3C77A"/>
      <stop offset="0.5" stop-color="#C9A24B"/>
      <stop offset="1" stop-color="#9A7A2E"/>
    </linearGradient>
    <radialGradient id="glow20" cx="0.5" cy="0.45" r="0.55">
      <stop offset="0" stop-color="#FFF6DD" stop-opacity="0.55"/>
      <stop offset="0.45" stop-color="#FFF6DD" stop-opacity="0.12"/>
      <stop offset="1" stop-color="#FFF6DD" stop-opacity="0"/>
    </radialGradient>
    <pattern id="jaali20" width="56" height="56" patternUnits="userSpaceOnUse" patternTransform="rotate(0)">
      <rect width="56" height="56" fill="none"/>
      <path d="M28 2 L54 28 L28 54 L2 28 Z" fill="none" stroke="#C9A24B" stroke-opacity="0.5" stroke-width="1.4"/>
      <circle cx="28" cy="28" r="6" fill="none" stroke="#C9A24B" stroke-opacity="0.4" stroke-width="1.2"/>
      <path d="M28 14 L42 28 L28 42 L14 28 Z" fill="none" stroke="#C9A24B" stroke-opacity="0.3" stroke-width="1"/>
    </pattern>
    <filter id="soft20" x="-20%" y="-20%" width="140%" height="140%">
      <feGaussianBlur stdDeviation="6"/>
    </filter>
  
    <radialGradient id="vig" cx="0.5" cy="0.45" r="0.75">
      <stop offset="0.6" stop-color="#000000" stop-opacity="0"/>
      <stop offset="1" stop-color="#000000" stop-opacity="0.28"/>
    </radialGradient>
  </defs>
  <rect width="1600" height="1000" fill="url(#wall20)"/>
<rect x="0" y="720" width="1600" height="280" fill="url(#floor20)"/><line x1="80" y1="720" x2="-1720" y2="1000" stroke="#000000" stroke-opacity="0.06" stroke-width="2"/><line x1="200" y1="720" x2="-1300" y2="1000" stroke="#000000" stroke-opacity="0.06" stroke-width="2"/><line x1="320" y1="720" x2="-880" y2="1000" stroke="#000000" stroke-opacity="0.06" stroke-width="2"/><line x1="440" y1="720" x2="-460" y2="1000" stroke="#000000" stroke-opacity="0.06" stroke-width="2"/><line x1="560" y1="720" x2="-40" y2="1000" stroke="#000000" stroke-opacity="0.06" stroke-width="2"/><line x1="680" y1="720" x2="380" y2="1000" stroke="#000000" stroke-opacity="0.06" stroke-width="2"/><line x1="800" y1="720" x2="800" y2="1000" stroke="#000000" stroke-opacity="0.06" stroke-width="2"/><line x1="920" y1="720" x2="1220" y2="1000" stroke="#000000" stroke-opacity="0.06" stroke-width="2"/><line x1="1040" y1="720" x2="1640" y2="1000" stroke="#000000" stroke-opacity="0.06" stroke-width="2"/><line x1="1160" y1="720" x2="2060" y2="1000" stroke="#000000" stroke-opacity="0.06" stroke-width="2"/><line x1="1280" y1="720" x2="2480" y2="1000" stroke="#000000" stroke-opacity="0.06" stroke-width="2"/><line x1="1400" y1="720" x2="2900" y2="1000" stroke="#000000" stroke-opacity="0.06" stroke-width="2"/><line x1="1520" y1="720" x2="3320" y2="1000" stroke="#000000" stroke-opacity="0.06" stroke-width="2"/><path d="M540 720 L540 360 Q540 150 800 150 Q1060 150 1060 360 L1060 720 Z" fill="#5A3A28"/><path d="M560 700 L560 370 Q560 175 800 175 Q1040 175 1040 370 L1040 700 Z" fill="#7A5234"/><path d="M620 175 Q800 60 980 175 Z" fill="url(#brass20)"/><path d="M660 130 Q800 50 940 130 Z" fill="#E3C77A"/><circle cx="800" cy="60" r="16" fill="url(#brass20)"/><rect x="300" y="280" width="200" height="430" fill="#0E2A2B" opacity="0.0"/><rect x="300" y="280" width="200" height="430" fill="url(#jaali20)" opacity="0.8"/><rect x="300" y="280" width="200" height="430" fill="none" stroke="url(#brass20)" stroke-width="4"/><rect x="1100" y="280" width="200" height="430" fill="#0E2A2B" opacity="0.0"/><rect x="1100" y="280" width="200" height="430" fill="url(#jaali20)" opacity="0.8"/><rect x="1100" y="280" width="200" height="430" fill="none" stroke="url(#brass20)" stroke-width="4"/><rect x="610" y="300" width="380" height="360" fill="#2A1B12"/><ellipse cx="800" cy="470" rx="150" ry="170" fill="url(#glow20)"/><path d="M800 360 q-60 0 -60 90 q0 110 60 150 q60 -40 60 -150 q0 -90 -60 -90 Z" fill="#C9A24B" opacity="0.85"/><circle cx="800" cy="410" r="34" fill="#E3C77A"/><path d="M674 650 q26 24 52 0 Z" fill="url(#brass20)"/><path d="M700 612 q-10 22 0 36 q10 -14 0 -36" fill="#FFB347"/><circle cx="700" cy="620" r="26" fill="url(#glow20)"/><path d="M874 650 q26 24 52 0 Z" fill="url(#brass20)"/><path d="M900 612 q-10 22 0 36 q10 -14 0 -36" fill="#FFB347"/><circle cx="900" cy="620" r="26" fill="url(#glow20)"/><g transform="translate(800,820)"><ellipse cx="0" cy="0" rx="120" ry="34" fill="none" stroke="#C9A24B" stroke-opacity="0.5" stroke-width="3" transform="rotate(0)"/><ellipse cx="0" cy="0" rx="120" ry="34" fill="none" stroke="#C9A24B" stroke-opacity="0.5" stroke-width="3" transform="rotate(30)"/><ellipse cx="0" cy="0" rx="120" ry="34" fill="none" stroke="#C9A24B" stroke-opacity="0.5" stroke-width="3" transform="rotate(60)"/><ellipse cx="0" cy="0" rx="120" ry="34" fill="none" stroke="#C9A24B" stroke-opacity="0.5" stroke-width="3" transform="rotate(90)"/><ellipse cx="0" cy="0" rx="120" ry="34" fill="none" stroke="#C9A24B" stroke-opacity="0.5" stroke-width="3" transform="rotate(120)"/><ellipse cx="0" cy="0" rx="120" ry="34" fill="none" stroke="#C9A24B" stroke-opacity="0.5" stroke-width="3" transform="rotate(150)"/><ellipse cx="0" cy="0" rx="120" ry="34" fill="none" stroke="#C9A24B" stroke-opacity="0.5" stroke-width="3" transform="rotate(180)"/><ellipse cx="0" cy="0" rx="120" ry="34" fill="none" stroke="#C9A24B" stroke-opacity="0.5" stroke-width="3" transform="rotate(210)"/><ellipse cx="0" cy="0" rx="120" ry="34" fill="none" stroke="#C9A24B" stroke-opacity="0.5" stroke-width="3" transform="rotate(240)"/><ellipse cx="0" cy="0" rx="120" ry="34" fill="none" stroke="#C9A24B" stroke-opacity="0.5" stroke-width="3" transform="rotate(270)"/><ellipse cx="0" cy="0" rx="120" ry="34" fill="none" stroke="#C9A24B" stroke-opacity="0.5" stroke-width="3" transform="rotate(300)"/><ellipse cx="0" cy="0" rx="120" ry="34" fill="none" stroke="#C9A24B" stroke-opacity="0.5" stroke-width="3" transform="rotate(330)"/></g>
<ellipse cx="800" cy="470" rx="161" ry="113" fill="url(#glow20)" opacity="0.7"/>

  <rect x="0" y="0" width="1600" height="1000" fill="url(#vig)"/>

  <g opacity="0.16" font-family="Georgia, 'Times New Roman', serif">
    <text x="1560" y="954" text-anchor="end" font-size="190" font-weight="700"
          fill="#FFFFFF" opacity="0.5">20</text>
  </g>
  <g opacity="0.5" font-family="Georgia, serif">
    <rect x="36" y="942" width="234" height="36" rx="18" fill="#000000" opacity="0.22"/>
    <text x="52" y="967" font-size="19" letter-spacing="3" fill="#F6F1E7">VENKATESHWARA &#8226; 20</text>
  </g>
</svg>