<svg xmlns="http://www.w3.org/2000/svg" viewBox="0 0 1600 1000" preserveAspectRatio="xMidYMid slice" role="img" aria-label="Interior illustration 24">

  <defs>
    <linearGradient id="wall24" x1="0" y1="0" x2="0" y2="1">
      <stop offset="0" stop-color="#143C3D"/>
      <stop offset="1" stop-color="#0E2A2B"/>
    </linearGradient>
    <linearGradient id="floor24" x1="0" y1="0" x2="0" y2="1">
      <stop offset="0" stop-color="#5A4632"/>
      <stop offset="1" stop-color="#3C2E20"/>
    </linearGradient>
    <linearGradient id="brass24" x1="0" y1="0" x2="1" y2="1">
      <stop offset="0" stop-color="#E3C77A"/>
      <stop offset="0.5" stop-color="#C9A24B"/>
      <stop offset="1" stop-color="#9A7A2E"/>
    </linearGradient>
    <radialGradient id="glow24" cx="0.5" cy="0.45" r="0.55">
      <stop offset="0" stop-color="#FFF6DD" stop-opacity="0.55"/>
      <stop offset="0.45" stop-color="#FFF6DD" stop-opacity="0.12"/>
      <stop offset="1" stop-color="#FFF6DD" stop-opacity="0"/>
    </radialGradient>
    <pattern id="jaali24" width="56" height="56" patternUnits="userSpaceOnUse" patternTransform="rotate(0)">
      <rect width="56" height="56" fill="none"/>
      <path d="M28 2 L54 28 L28 54 L2 28 Z" fill="none" stroke="#C9A24B" stroke-opacity="0.5" stroke-width="1.4"/>
      <circle cx="28" cy="28" r="6" fill="none" stroke="#C9A24B" stroke-opacity="0.4" stroke-width="1.2"/>
      <path d="M28 14 L42 28 L28 42 L14 28 Z" fill="none" stroke="#C9A24B" stroke-opacity="0.3" stroke-width="1"/>
    </pattern>
    <filter id="soft24" x="-20%" y="-20%" width="140%" height="140%">
      <feGaussianBlur stdDeviation="6"/>
    </filter>
  
    <radialGradient id="vig" cx="0.5" cy="0.45" r="0.75">
      <stop offset="0.6" stop-color="#000000" stop-opacity="0"/>
      <stop offset="1" stop-color="#000000" stop-opacity="0.28"/>
    </radialGradient>
  </defs>
  <rect width="1600" height="1000" fill="url(#wall24)"/>
<rect x="0" y="700" width="1600" height="300" fill="url(#floor24)"/><line x1="80" y1="700" x2="-1720" y2="1000" stroke="#000000" stroke-opacity="0.06" stroke-width="2"/><line x1="200" y1="700" x2="-1300" y2="1000" stroke="#000000" stroke-opacity="0.06" stroke-width="2"/><line x1="320" y1="700" x2="-880" y2="1000" stroke="#000000" stroke-opacity="0.06" stroke-width="2"/><line x1="440" y1="700" x2="-460" y2="1000" stroke="#000000" stroke-opacity="0.06" stroke-width="2"/><line x1="560" y1="700" x2="-40" y2="1000" stroke="#000000" stroke-opacity="0.06" stroke-width="2"/><line x1="680" y1="700" x2="380" y2="1000" stroke="#000000" stroke-opacity="0.06" stroke-width="2"/><line x1="800" y1="700" x2="800" y2="1000" stroke="#000000" stroke-opacity="0.06" stroke-width="2"/><line x1="920" y1="700" x2="1220" y2="1000" stroke="#000000" stroke-opacity="0.06" stroke-width="2"/><line x1="1040" y1="700" x2="1640" y2="1000" stroke="#000000" stroke-opacity="0.06" stroke-width="2"/><line x1="1160" y1="700" x2="2060" y2="1000" stroke="#000000" stroke-opacity="0.06" stroke-width="2"/><line x1="1280" y1="700" x2="2480" y2="1000" stroke="#000000" stroke-opacity="0.06" stroke-width="2"/><line x1="1400" y1="700" x2="2900" y2="1000" stroke="#000000" stroke-opacity="0.06" stroke-width="2"/><line x1="1520" y1="700" x2="3320" y2="1000" stroke="#000000" stroke-opacity="0.06" stroke-width="2"/><rect x="120" y="120" width="560" height="560" rx="8" fill="#5A3A28" /><rect x="140" y="160" width="520" height="16" rx="0" fill="#7A5234" /><rect x="152" y="80" width="34" height="80" rx="2" fill="#7E8C6A" /><rect x="203" y="60" width="34" height="100" rx="2" fill="#7C2D34" /><rect x="253" y="82" width="34" height="78" rx="2" fill="#7C2D34" /><rect x="306" y="69" width="34" height="91" rx="2" fill="#7C2D34" /><rect x="357" y="62" width="34" height="98" rx="2" fill="#EAE2D2" /><rect x="411" y="53" width="34" height="107" rx="2" fill="#EAE2D2" /><rect x="461" y="68" width="34" height="92" rx="2" fill="#C9A24B" /><rect x="512" y="58" width="34" height="102" rx="2" fill="#7C2D34" /><rect x="568" y="78" width="34" height="82" rx="2" fill="#4A2740" /><rect x="619" y="76" width="34" height="84" rx="2" fill="#7E8C6A" /><rect x="140" y="295" width="520" height="16" rx="0" fill="#7A5234" /><rect x="150" y="213" width="34" height="82" rx="2" fill="#7C2D34" /><rect x="202" y="194" width="34" height="101" rx="2" fill="#7E8C6A" /><rect x="255" y="225" width="34" height="70" rx="2" fill="#4A2740" /><rect x="304" y="207" width="34" height="88" rx="2" fill="#EAE2D2" /><rect x="357" y="214" width="34" height="81" rx="2" fill="#4A2740" /><rect x="409" y="211" width="34" height="84" rx="2" fill="#EAE2D2" /><rect x="460" y="202" width="34" height="93" rx="2" fill="#EAE2D2" /><rect x="512" y="196" width="34" height="99" rx="2" fill="#1C5152" /><rect x="564" y="186" width="34" height="109" rx="2" fill="#C9A24B" /><rect x="620" y="195" width="34" height="100" rx="2" fill="#7C2D34" /><rect x="140" y="430" width="520" height="16" rx="0" fill="#7A5234" /><rect x="152" y="356" width="34" height="74" rx="2" fill="#EAE2D2" /><rect x="201" y="349" width="34" height="81" rx="2" fill="#EAE2D2" /><rect x="255" y="330" width="34" height="100" rx="2" fill="#7E8C6A" /><rect x="308" y="355" width="34" height="75" rx="2" fill="#1C5152" /><rect x="356" y="360" width="34" height="70" rx="2" fill="#C9A24B" /><rect x="411" y="358" width="34" height="72" rx="2" fill="#C9A24B" /><rect x="464" y="325" width="34" height="105" rx="2" fill="#7E8C6A" /><rect x="516" y="356" width="34" height="74" rx="2" fill="#7E8C6A" /><rect x="565" y="333" width="34" height="97" rx="2" fill="#4A2740" /><rect x="620" y="332" width="34" height="98" rx="2" fill="#C9A24B" /><rect x="140" y="565" width="520" height="16" rx="0" fill="#7A5234" /><rect x="152" y="455" width="34" height="110" rx="2" fill="#4A2740" /><rect x="200" y="459" width="34" height="106" rx="2" fill="#4A2740" /><rect x="256" y="457" width="34" height="108" rx="2" fill="#4A2740" /><rect x="306" y="473" width="34" height="92" rx="2" fill="#4A2740" /><rect x="360" y="469" width="34" height="96" rx="2" fill="#C9A24B" /><rect x="409" y="480" width="34" height="85" rx="2" fill="#7C2D34" /><rect x="462" y="485" width="34" height="80" rx="2" fill="#4A2740" /><rect x="515" y="465" width="34" height="100" rx="2" fill="#1C5152" /><rect x="568" y="477" width="34" height="88" rx="2" fill="#4A2740" /><rect x="619" y="470" width="34" height="95" rx="2" fill="#7C2D34" /><rect x="1000" y="150" width="420" height="420" fill="#0E2A2B" opacity="0.0"/><rect x="1000" y="150" width="420" height="420" fill="url(#jaali24)" opacity="0.85"/><rect x="1000" y="150" width="420" height="420" fill="none" stroke="url(#brass24)" stroke-width="4"/><rect x="760" y="560" width="620" height="50" rx="8" fill="#14201F" /><rect x="780" y="610" width="40" height="150" rx="0" fill="#7A5234" /><rect x="1320" y="610" width="40" height="150" rx="0" fill="#7A5234" /><rect x="980" y="600" width="160" height="60" rx="10" fill="#7C2D34" /><rect x="980" y="470" width="160" height="150" rx="16" fill="#9E3B43" /><rect x="820" y="510" width="120" height="80" rx="6" fill="#1C5152"/><path d="M1240 560 l0 -90 l60 -20" stroke="url(#brass24)" stroke-width="8" fill="none"/><circle cx="1300" cy="448" r="20" fill="url(#glow24)"/>
<ellipse cx="1300" cy="450" rx="93" ry="65" fill="url(#glow24)" opacity="0.7"/>

  <rect x="0" y="0" width="1600" height="1000" fill="url(#vig)"/>

  <g opacity="0.16" font-family="Georgia, 'Times New Roman', serif">
    <text x="1560" y="954" text-anchor="end" font-size="190" font-weight="700"
          fill="#FFFFFF" opacity="0.5">24</text>
  </g>
  <g opacity="0.5" font-family="Georgia, serif">
    <rect x="36" y="942" width="234" height="36" rx="18" fill="#000000" opacity="0.22"/>
    <text x="52" y="967" font-size="19" letter-spacing="3" fill="#F6F1E7">VENKATESHWARA &#8226; 24</text>
  </g>
</svg>