<svg xmlns="http://www.w3.org/2000/svg" viewBox="0 0 1600 1000" preserveAspectRatio="xMidYMid slice" role="img" aria-label="Interior illustration 26">

  <defs>
    <linearGradient id="wall26" x1="0" y1="0" x2="0" y2="1">
      <stop offset="0" stop-color="#1B4A4C"/>
      <stop offset="1" stop-color="#0E2A2B"/>
    </linearGradient>
    <linearGradient id="floor26" x1="0" y1="0" x2="0" y2="1">
      <stop offset="0" stop-color="#46555A"/>
      <stop offset="1" stop-color="#2E3A3E"/>
    </linearGradient>
    <linearGradient id="brass26" x1="0" y1="0" x2="1" y2="1">
      <stop offset="0" stop-color="#E3C77A"/>
      <stop offset="0.5" stop-color="#C9A24B"/>
      <stop offset="1" stop-color="#9A7A2E"/>
    </linearGradient>
    <radialGradient id="glow26" cx="0.5" cy="0.45" r="0.55">
      <stop offset="0" stop-color="#FFF6DD" stop-opacity="0.55"/>
      <stop offset="0.45" stop-color="#FFF6DD" stop-opacity="0.12"/>
      <stop offset="1" stop-color="#FFF6DD" stop-opacity="0"/>
    </radialGradient>
    <pattern id="jaali26" width="56" height="56" patternUnits="userSpaceOnUse" patternTransform="rotate(0)">
      <rect width="56" height="56" fill="none"/>
      <path d="M28 2 L54 28 L28 54 L2 28 Z" fill="none" stroke="#C9A24B" stroke-opacity="0.5" stroke-width="1.4"/>
      <circle cx="28" cy="28" r="6" fill="none" stroke="#C9A24B" stroke-opacity="0.4" stroke-width="1.2"/>
      <path d="M28 14 L42 28 L28 42 L14 28 Z" fill="none" stroke="#C9A24B" stroke-opacity="0.3" stroke-width="1"/>
    </pattern>
    <filter id="soft26" x="-20%" y="-20%" width="140%" height="140%">
      <feGaussianBlur stdDeviation="6"/>
    </filter>
  
    <radialGradient id="vig" cx="0.5" cy="0.45" r="0.75">
      <stop offset="0.6" stop-color="#000000" stop-opacity="0"/>
      <stop offset="1" stop-color="#000000" stop-opacity="0.28"/>
    </radialGradient>
  </defs>
  <rect width="1600" height="1000" fill="url(#wall26)"/>
<rect x="0" y="720" width="1600" height="280" fill="url(#floor26)"/><line x1="80" y1="720" x2="-1720" y2="1000" stroke="#000000" stroke-opacity="0.06" stroke-width="2"/><line x1="200" y1="720" x2="-1300" y2="1000" stroke="#000000" stroke-opacity="0.06" stroke-width="2"/><line x1="320" y1="720" x2="-880" y2="1000" stroke="#000000" stroke-opacity="0.06" stroke-width="2"/><line x1="440" y1="720" x2="-460" y2="1000" stroke="#000000" stroke-opacity="0.06" stroke-width="2"/><line x1="560" y1="720" x2="-40" y2="1000" stroke="#000000" stroke-opacity="0.06" stroke-width="2"/><line x1="680" y1="720" x2="380" y2="1000" stroke="#000000" stroke-opacity="0.06" stroke-width="2"/><line x1="800" y1="720" x2="800" y2="1000" stroke="#000000" stroke-opacity="0.06" stroke-width="2"/><line x1="920" y1="720" x2="1220" y2="1000" stroke="#000000" stroke-opacity="0.06" stroke-width="2"/><line x1="1040" y1="720" x2="1640" y2="1000" stroke="#000000" stroke-opacity="0.06" stroke-width="2"/><line x1="1160" y1="720" x2="2060" y2="1000" stroke="#000000" stroke-opacity="0.06" stroke-width="2"/><line x1="1280" y1="720" x2="2480" y2="1000" stroke="#000000" stroke-opacity="0.06" stroke-width="2"/><line x1="1400" y1="720" x2="2900" y2="1000" stroke="#000000" stroke-opacity="0.06" stroke-width="2"/><line x1="1520" y1="720" x2="3320" y2="1000" stroke="#000000" stroke-opacity="0.06" stroke-width="2"/><rect x="140" y="110" width="196" height="560" rx="6" fill="#236063" /><path d="M160 160 q60 80 150 40" stroke="#FFFFFF" stroke-opacity="0.1" stroke-width="3" fill="none"/><rect x="350" y="110" width="196" height="560" rx="6" fill="#1F5557" /><path d="M370 160 q60 80 150 40" stroke="#FFFFFF" stroke-opacity="0.1" stroke-width="3" fill="none"/><rect x="560" y="110" width="196" height="560" rx="6" fill="#236063" /><path d="M580 160 q60 80 150 40" stroke="#FFFFFF" stroke-opacity="0.1" stroke-width="3" fill="none"/><rect x="770" y="110" width="196" height="560" rx="6" fill="#1F5557" /><path d="M790 160 q60 80 150 40" stroke="#FFFFFF" stroke-opacity="0.1" stroke-width="3" fill="none"/><rect x="980" y="110" width="196" height="560" rx="6" fill="#236063" /><path d="M1000 160 q60 80 150 40" stroke="#FFFFFF" stroke-opacity="0.1" stroke-width="3" fill="none"/><rect x="1190" y="110" width="196" height="560" rx="6" fill="#1F5557" /><path d="M1210 160 q60 80 150 40" stroke="#FFFFFF" stroke-opacity="0.1" stroke-width="3" fill="none"/><rect x="1240" y="150" width="220" height="460" fill="#0E2A2B" opacity="0.0"/><rect x="1240" y="150" width="220" height="460" fill="url(#jaali26)" opacity="0.6"/><rect x="1240" y="150" width="220" height="460" fill="none" stroke="url(#brass26)" stroke-width="4"/><rect x="220" y="520" width="520" height="40" rx="8" fill="#14201F" /><rect x="240" y="560" width="480" height="150" rx="8" fill="#5A3A28" /><ellipse cx="480" cy="520" rx="120" ry="26" fill="#F6F1E7"/><path d="M480 510 q0 -70 0 -90" stroke="url(#brass26)" stroke-width="9" fill="none"/><circle cx="480" cy="320" r="120" fill="#0B2B2A"/><circle cx="480" cy="320" r="120" fill="none" stroke="url(#brass26)" stroke-width="8"/><circle cx="480" cy="320" r="120" fill="url(#glow26)" opacity="0.4"/><ellipse cx="1080" cy="650" rx="240" ry="80" fill="#F6F1E7"/><ellipse cx="1080" cy="630" rx="240" ry="80" fill="#EAE2D2"/><ellipse cx="1080" cy="624" rx="200" ry="60" fill="#9DBFC0"/>
<ellipse cx="480" cy="320" rx="124" ry="87" fill="url(#glow26)" opacity="0.7"/><ellipse cx="1080" cy="520" rx="149" ry="104" fill="url(#glow26)" opacity="0.7"/>

  <rect x="0" y="0" width="1600" height="1000" fill="url(#vig)"/>

  <g opacity="0.16" font-family="Georgia, 'Times New Roman', serif">
    <text x="1560" y="954" text-anchor="end" font-size="190" font-weight="700"
          fill="#FFFFFF" opacity="0.5">26</text>
  </g>
  <g opacity="0.5" font-family="Georgia, serif">
    <rect x="36" y="942" width="234" height="36" rx="18" fill="#000000" opacity="0.22"/>
    <text x="52" y="967" font-size="19" letter-spacing="3" fill="#F6F1E7">VENKATESHWARA &#8226; 26</text>
  </g>
</svg>