<svg xmlns="http://www.w3.org/2000/svg" viewBox="0 0 1600 1000" preserveAspectRatio="xMidYMid slice" role="img" aria-label="Interior illustration 29">

  <defs>
    <linearGradient id="wall29" x1="0" y1="0" x2="0" y2="1">
      <stop offset="0" stop-color="#143C3D"/>
      <stop offset="1" stop-color="#0E2A2B"/>
    </linearGradient>
    <linearGradient id="floor29" x1="0" y1="0" x2="0" y2="1">
      <stop offset="0" stop-color="#5A4632"/>
      <stop offset="1" stop-color="#3C2E20"/>
    </linearGradient>
    <linearGradient id="brass29" x1="0" y1="0" x2="1" y2="1">
      <stop offset="0" stop-color="#E3C77A"/>
      <stop offset="0.5" stop-color="#C9A24B"/>
      <stop offset="1" stop-color="#9A7A2E"/>
    </linearGradient>
    <radialGradient id="glow29" cx="0.5" cy="0.45" r="0.55">
      <stop offset="0" stop-color="#FFF6DD" stop-opacity="0.55"/>
      <stop offset="0.45" stop-color="#FFF6DD" stop-opacity="0.12"/>
      <stop offset="1" stop-color="#FFF6DD" stop-opacity="0"/>
    </radialGradient>
    <pattern id="jaali29" width="56" height="56" patternUnits="userSpaceOnUse" patternTransform="rotate(0)">
      <rect width="56" height="56" fill="none"/>
      <path d="M28 2 L54 28 L28 54 L2 28 Z" fill="none" stroke="#C9A24B" stroke-opacity="0.5" stroke-width="1.4"/>
      <circle cx="28" cy="28" r="6" fill="none" stroke="#C9A24B" stroke-opacity="0.4" stroke-width="1.2"/>
      <path d="M28 14 L42 28 L28 42 L14 28 Z" fill="none" stroke="#C9A24B" stroke-opacity="0.3" stroke-width="1"/>
    </pattern>
    <filter id="soft29" x="-20%" y="-20%" width="140%" height="140%">
      <feGaussianBlur stdDeviation="6"/>
    </filter>
  
    <radialGradient id="vig" cx="0.5" cy="0.45" r="0.75">
      <stop offset="0.6" stop-color="#000000" stop-opacity="0"/>
      <stop offset="1" stop-color="#000000" stop-opacity="0.28"/>
    </radialGradient>
  </defs>
  <rect width="1600" height="1000" fill="url(#wall29)"/>
<rect x="0" y="720" width="1600" height="280" fill="url(#floor29)"/><line x1="80" y1="720" x2="-1720" y2="1000" stroke="#000000" stroke-opacity="0.06" stroke-width="2"/><line x1="200" y1="720" x2="-1300" y2="1000" stroke="#000000" stroke-opacity="0.06" stroke-width="2"/><line x1="320" y1="720" x2="-880" y2="1000" stroke="#000000" stroke-opacity="0.06" stroke-width="2"/><line x1="440" y1="720" x2="-460" y2="1000" stroke="#000000" stroke-opacity="0.06" stroke-width="2"/><line x1="560" y1="720" x2="-40" y2="1000" stroke="#000000" stroke-opacity="0.06" stroke-width="2"/><line x1="680" y1="720" x2="380" y2="1000" stroke="#000000" stroke-opacity="0.06" stroke-width="2"/><line x1="800" y1="720" x2="800" y2="1000" stroke="#000000" stroke-opacity="0.06" stroke-width="2"/><line x1="920" y1="720" x2="1220" y2="1000" stroke="#000000" stroke-opacity="0.06" stroke-width="2"/><line x1="1040" y1="720" x2="1640" y2="1000" stroke="#000000" stroke-opacity="0.06" stroke-width="2"/><line x1="1160" y1="720" x2="2060" y2="1000" stroke="#000000" stroke-opacity="0.06" stroke-width="2"/><line x1="1280" y1="720" x2="2480" y2="1000" stroke="#000000" stroke-opacity="0.06" stroke-width="2"/><line x1="1400" y1="720" x2="2900" y2="1000" stroke="#000000" stroke-opacity="0.06" stroke-width="2"/><line x1="1520" y1="720" x2="3320" y2="1000" stroke="#000000" stroke-opacity="0.06" stroke-width="2"/><rect x="140" y="120" width="720" height="520" rx="10" fill="#103937" /><rect x="170" y="150" width="150" height="140" fill="#7E8C6A"/><rect x="170" y="150" width="150" height="140" fill="none" stroke="url(#brass29)" stroke-width="6"/><rect x="338" y="150" width="150" height="140" fill="#C9A24B"/><rect x="338" y="150" width="150" height="140" fill="none" stroke="url(#brass29)" stroke-width="6"/><rect x="506" y="150" width="150" height="140" fill="#7A5234"/><rect x="506" y="150" width="150" height="140" fill="none" stroke="url(#brass29)" stroke-width="6"/><rect x="674" y="150" width="150" height="140" fill="#4A2740"/><rect x="674" y="150" width="150" height="140" fill="none" stroke="url(#brass29)" stroke-width="6"/><rect x="170" y="312" width="150" height="140" fill="#EAE2D2"/><rect x="170" y="312" width="150" height="140" fill="none" stroke="url(#brass29)" stroke-width="6"/><rect x="338" y="312" width="150" height="140" fill="#D8B9A6"/><rect x="338" y="312" width="150" height="140" fill="none" stroke="url(#brass29)" stroke-width="6"/><rect x="506" y="312" width="150" height="140" fill="#1C5152"/><rect x="506" y="312" width="150" height="140" fill="none" stroke="url(#brass29)" stroke-width="6"/><rect x="674" y="312" width="150" height="140" fill="#7C2D34"/><rect x="674" y="312" width="150" height="140" fill="none" stroke="url(#brass29)" stroke-width="6"/><rect x="170" y="474" width="150" height="140" fill="#7E8C6A"/><rect x="170" y="474" width="150" height="140" fill="none" stroke="url(#brass29)" stroke-width="6"/><rect x="338" y="474" width="150" height="140" fill="#C9A24B"/><rect x="338" y="474" width="150" height="140" fill="none" stroke="url(#brass29)" stroke-width="6"/><rect x="506" y="474" width="150" height="140" fill="#7A5234"/><rect x="506" y="474" width="150" height="140" fill="none" stroke="url(#brass29)" stroke-width="6"/><rect x="674" y="474" width="150" height="140" fill="#4A2740"/><rect x="674" y="474" width="150" height="140" fill="none" stroke="url(#brass29)" stroke-width="6"/><rect x="940" y="560" width="520" height="40" rx="8" fill="#14201F" /><rect x="960" y="600" width="40" height="150" rx="0" fill="#7A5234" /><rect x="1400" y="600" width="40" height="150" rx="0" fill="#7A5234" /><rect x="1000" y="520" width="400" height="46" rx="4" fill="#F6F1E7" /><path d="M1010 543 h380 M1010 530 h280 M1010 556 h320" stroke="#0E2A2B" stroke-opacity="0.5" stroke-width="2"/><rect x="1040" y="470" width="56" height="56" rx="6" fill="#7C2D34" /><rect x="1110" y="470" width="56" height="56" rx="6" fill="#C9A24B" /><rect x="1180" y="470" width="56" height="56" rx="6" fill="#7E8C6A" /><rect x="1250" y="470" width="56" height="56" rx="6" fill="#4A2740" /><line x1="1200" y1="0" x2="1200" y2="150" stroke="#9A7A2E" stroke-width="3"/><ellipse cx="1200" cy="150" rx="28" ry="19.599999999999998" fill="url(#brass29)"/><ellipse cx="1200" cy="156" rx="19.599999999999998" ry="14.0" fill="#FFF3CF" opacity="0.8"/>
<ellipse cx="500" cy="360" rx="186" ry="130" fill="url(#glow29)" opacity="0.7"/><ellipse cx="1200" cy="470" rx="124" ry="87" fill="url(#glow29)" opacity="0.7"/>

  <rect x="0" y="0" width="1600" height="1000" fill="url(#vig)"/>

  <g opacity="0.16" font-family="Georgia, 'Times New Roman', serif">
    <text x="1560" y="954" text-anchor="end" font-size="190" font-weight="700"
          fill="#FFFFFF" opacity="0.5">29</text>
  </g>
  <g opacity="0.5" font-family="Georgia, serif">
    <rect x="36" y="942" width="234" height="36" rx="18" fill="#000000" opacity="0.22"/>
    <text x="52" y="967" font-size="19" letter-spacing="3" fill="#F6F1E7">VENKATESHWARA &#8226; 29</text>
  </g>
</svg>