<svg xmlns="http://www.w3.org/2000/svg" viewBox="0 0 1600 1000" preserveAspectRatio="xMidYMid slice" role="img" aria-label="Interior illustration 31">

  <defs>
    <linearGradient id="wall31" x1="0" y1="0" x2="0" y2="1">
      <stop offset="0" stop-color="#16413F"/>
      <stop offset="1" stop-color="#0E2A2B"/>
    </linearGradient>
    <linearGradient id="floor31" x1="0" y1="0" x2="0" y2="1">
      <stop offset="0" stop-color="#3C3A36"/>
      <stop offset="1" stop-color="#24221F"/>
    </linearGradient>
    <linearGradient id="brass31" x1="0" y1="0" x2="1" y2="1">
      <stop offset="0" stop-color="#E3C77A"/>
      <stop offset="0.5" stop-color="#C9A24B"/>
      <stop offset="1" stop-color="#9A7A2E"/>
    </linearGradient>
    <radialGradient id="glow31" cx="0.5" cy="0.45" r="0.55">
      <stop offset="0" stop-color="#FFF6DD" stop-opacity="0.55"/>
      <stop offset="0.45" stop-color="#FFF6DD" stop-opacity="0.12"/>
      <stop offset="1" stop-color="#FFF6DD" stop-opacity="0"/>
    </radialGradient>
    <pattern id="jaali31" width="56" height="56" patternUnits="userSpaceOnUse" patternTransform="rotate(0)">
      <rect width="56" height="56" fill="none"/>
      <path d="M28 2 L54 28 L28 54 L2 28 Z" fill="none" stroke="#C9A24B" stroke-opacity="0.5" stroke-width="1.4"/>
      <circle cx="28" cy="28" r="6" fill="none" stroke="#C9A24B" stroke-opacity="0.4" stroke-width="1.2"/>
      <path d="M28 14 L42 28 L28 42 L14 28 Z" fill="none" stroke="#C9A24B" stroke-opacity="0.3" stroke-width="1"/>
    </pattern>
    <filter id="soft31" x="-20%" y="-20%" width="140%" height="140%">
      <feGaussianBlur stdDeviation="6"/>
    </filter>
  
    <radialGradient id="vig" cx="0.5" cy="0.45" r="0.75">
      <stop offset="0.6" stop-color="#000000" stop-opacity="0"/>
      <stop offset="1" stop-color="#000000" stop-opacity="0.28"/>
    </radialGradient>
  </defs>
  <rect width="1600" height="1000" fill="url(#wall31)"/>
<rect x="0" y="690" width="1600" height="310" fill="url(#floor31)"/><line x1="80" y1="690" x2="-1720" y2="1000" stroke="#000000" stroke-opacity="0.06" stroke-width="2"/><line x1="200" y1="690" x2="-1300" y2="1000" stroke="#000000" stroke-opacity="0.06" stroke-width="2"/><line x1="320" y1="690" x2="-880" y2="1000" stroke="#000000" stroke-opacity="0.06" stroke-width="2"/><line x1="440" y1="690" x2="-460" y2="1000" stroke="#000000" stroke-opacity="0.06" stroke-width="2"/><line x1="560" y1="690" x2="-40" y2="1000" stroke="#000000" stroke-opacity="0.06" stroke-width="2"/><line x1="680" y1="690" x2="380" y2="1000" stroke="#000000" stroke-opacity="0.06" stroke-width="2"/><line x1="800" y1="690" x2="800" y2="1000" stroke="#000000" stroke-opacity="0.06" stroke-width="2"/><line x1="920" y1="690" x2="1220" y2="1000" stroke="#000000" stroke-opacity="0.06" stroke-width="2"/><line x1="1040" y1="690" x2="1640" y2="1000" stroke="#000000" stroke-opacity="0.06" stroke-width="2"/><line x1="1160" y1="690" x2="2060" y2="1000" stroke="#000000" stroke-opacity="0.06" stroke-width="2"/><line x1="1280" y1="690" x2="2480" y2="1000" stroke="#000000" stroke-opacity="0.06" stroke-width="2"/><line x1="1400" y1="690" x2="2900" y2="1000" stroke="#000000" stroke-opacity="0.06" stroke-width="2"/><line x1="1520" y1="690" x2="3320" y2="1000" stroke="#000000" stroke-opacity="0.06" stroke-width="2"/><rect x="160" y="120" width="230" height="170" rx="8" fill="#EAE2D2" opacity="0.96"/><rect x="174" y="134" width="202" height="142" rx="4" fill="#F6F1E7" /><circle cx="360" cy="205" r="6" fill="url(#brass31)"/><rect x="420" y="120" width="230" height="170" rx="8" fill="#EAE2D2" opacity="0.96"/><rect x="434" y="134" width="202" height="142" rx="4" fill="#F6F1E7" /><circle cx="620" cy="205" r="6" fill="url(#brass31)"/><rect x="680" y="120" width="230" height="170" rx="8" fill="#EAE2D2" opacity="0.96"/><rect x="694" y="134" width="202" height="142" rx="4" fill="#F6F1E7" /><circle cx="880" cy="205" r="6" fill="url(#brass31)"/><rect x="940" y="120" width="230" height="170" rx="8" fill="#EAE2D2" opacity="0.96"/><rect x="954" y="134" width="202" height="142" rx="4" fill="#F6F1E7" /><circle cx="1140" cy="205" r="6" fill="url(#brass31)"/><rect x="1200" y="120" width="230" height="170" rx="8" fill="#EAE2D2" opacity="0.96"/><rect x="1214" y="134" width="202" height="142" rx="4" fill="#F6F1E7" /><circle cx="1400" cy="205" r="6" fill="url(#brass31)"/><rect x="160" y="300" width="1290" height="70" fill="#0E2A2B" opacity="0.0"/><rect x="160" y="300" width="1290" height="70" fill="url(#jaali31)" opacity="0.7"/><rect x="160" y="300" width="1290" height="70" fill="none" stroke="url(#brass31)" stroke-width="4"/><rect x="130" y="372" width="1340" height="36" rx="6" fill="#14201F" /><rect x="130" y="372" width="1340" height="10" rx="4" fill="#C9A24B" opacity="0.5"/><rect x="470" y="560" width="650" height="300" rx="10" fill="#2C6E63" /><rect x="470" y="536" width="650" height="40" rx="8" fill="#14201F" /><rect x="510" y="576" width="84" height="260" rx="6" fill="#23564E" /><circle cx="582" cy="706" r="6" fill="url(#brass31)"/><rect x="630" y="576" width="84" height="260" rx="6" fill="#23564E" /><circle cx="702" cy="706" r="6" fill="url(#brass31)"/><rect x="750" y="576" width="84" height="260" rx="6" fill="#23564E" /><circle cx="822" cy="706" r="6" fill="url(#brass31)"/><rect x="870" y="576" width="84" height="260" rx="6" fill="#23564E" /><circle cx="942" cy="706" r="6" fill="url(#brass31)"/><rect x="990" y="576" width="84" height="260" rx="6" fill="#23564E" /><circle cx="1062" cy="706" r="6" fill="url(#brass31)"/><rect x="130" y="410" width="320" height="280" rx="8" fill="#23564E" /><rect x="1150" y="410" width="320" height="280" rx="8" fill="#23564E" /><line x1="640" y1="0" x2="640" y2="150" stroke="#9A7A2E" stroke-width="3"/><ellipse cx="640" cy="150" rx="30" ry="21.0" fill="url(#brass31)"/><ellipse cx="640" cy="156" rx="21.0" ry="15.0" fill="#FFF3CF" opacity="0.8"/><line x1="800" y1="0" x2="800" y2="150" stroke="#9A7A2E" stroke-width="3"/><ellipse cx="800" cy="150" rx="30" ry="21.0" fill="url(#brass31)"/><ellipse cx="800" cy="156" rx="21.0" ry="15.0" fill="#FFF3CF" opacity="0.8"/><line x1="960" y1="0" x2="960" y2="150" stroke="#9A7A2E" stroke-width="3"/><ellipse cx="960" cy="150" rx="30" ry="21.0" fill="url(#brass31)"/><ellipse cx="960" cy="156" rx="21.0" ry="15.0" fill="#FFF3CF" opacity="0.8"/><path d="M300 372 q0 -60 40 -60" stroke="url(#brass31)" stroke-width="9" fill="none"/>
<ellipse cx="800" cy="300" rx="223" ry="156" fill="url(#glow31)" opacity="0.7"/>

  <rect x="0" y="0" width="1600" height="1000" fill="url(#vig)"/>

  <g opacity="0.16" font-family="Georgia, 'Times New Roman', serif">
    <text x="1560" y="954" text-anchor="end" font-size="190" font-weight="700"
          fill="#FFFFFF" opacity="0.5">31</text>
  </g>
  <g opacity="0.5" font-family="Georgia, serif">
    <rect x="36" y="942" width="234" height="36" rx="18" fill="#000000" opacity="0.22"/>
    <text x="52" y="967" font-size="19" letter-spacing="3" fill="#F6F1E7">VENKATESHWARA &#8226; 31</text>
  </g>
</svg>