<svg xmlns="http://www.w3.org/2000/svg" viewBox="0 0 1600 1000" preserveAspectRatio="xMidYMid slice" role="img" aria-label="Interior illustration 36">

  <defs>
    <linearGradient id="wall36" x1="0" y1="0" x2="0" y2="1">
      <stop offset="0" stop-color="#16413F"/>
      <stop offset="1" stop-color="#0E2A2B"/>
    </linearGradient>
    <linearGradient id="floor36" x1="0" y1="0" x2="0" y2="1">
      <stop offset="0" stop-color="#3A4A4C"/>
      <stop offset="1" stop-color="#222E2F"/>
    </linearGradient>
    <linearGradient id="brass36" x1="0" y1="0" x2="1" y2="1">
      <stop offset="0" stop-color="#E3C77A"/>
      <stop offset="0.5" stop-color="#C9A24B"/>
      <stop offset="1" stop-color="#9A7A2E"/>
    </linearGradient>
    <radialGradient id="glow36" cx="0.5" cy="0.45" r="0.55">
      <stop offset="0" stop-color="#FFF6DD" stop-opacity="0.55"/>
      <stop offset="0.45" stop-color="#FFF6DD" stop-opacity="0.12"/>
      <stop offset="1" stop-color="#FFF6DD" stop-opacity="0"/>
    </radialGradient>
    <pattern id="jaali36" width="56" height="56" patternUnits="userSpaceOnUse" patternTransform="rotate(0)">
      <rect width="56" height="56" fill="none"/>
      <path d="M28 2 L54 28 L28 54 L2 28 Z" fill="none" stroke="#C9A24B" stroke-opacity="0.5" stroke-width="1.4"/>
      <circle cx="28" cy="28" r="6" fill="none" stroke="#C9A24B" stroke-opacity="0.4" stroke-width="1.2"/>
      <path d="M28 14 L42 28 L28 42 L14 28 Z" fill="none" stroke="#C9A24B" stroke-opacity="0.3" stroke-width="1"/>
    </pattern>
    <filter id="soft36" x="-20%" y="-20%" width="140%" height="140%">
      <feGaussianBlur stdDeviation="6"/>
    </filter>
  
    <radialGradient id="vig" cx="0.5" cy="0.45" r="0.75">
      <stop offset="0.6" stop-color="#000000" stop-opacity="0"/>
      <stop offset="1" stop-color="#000000" stop-opacity="0.28"/>
    </radialGradient>
  </defs>
  <rect width="1600" height="1000" fill="url(#wall36)"/>
<rect x="0" y="700" width="1600" height="300" fill="url(#floor36)"/><line x1="80" y1="700" x2="-1720" y2="1000" stroke="#000000" stroke-opacity="0.06" stroke-width="2"/><line x1="200" y1="700" x2="-1300" y2="1000" stroke="#000000" stroke-opacity="0.06" stroke-width="2"/><line x1="320" y1="700" x2="-880" y2="1000" stroke="#000000" stroke-opacity="0.06" stroke-width="2"/><line x1="440" y1="700" x2="-460" y2="1000" stroke="#000000" stroke-opacity="0.06" stroke-width="2"/><line x1="560" y1="700" x2="-40" y2="1000" stroke="#000000" stroke-opacity="0.06" stroke-width="2"/><line x1="680" y1="700" x2="380" y2="1000" stroke="#000000" stroke-opacity="0.06" stroke-width="2"/><line x1="800" y1="700" x2="800" y2="1000" stroke="#000000" stroke-opacity="0.06" stroke-width="2"/><line x1="920" y1="700" x2="1220" y2="1000" stroke="#000000" stroke-opacity="0.06" stroke-width="2"/><line x1="1040" y1="700" x2="1640" y2="1000" stroke="#000000" stroke-opacity="0.06" stroke-width="2"/><line x1="1160" y1="700" x2="2060" y2="1000" stroke="#000000" stroke-opacity="0.06" stroke-width="2"/><line x1="1280" y1="700" x2="2480" y2="1000" stroke="#000000" stroke-opacity="0.06" stroke-width="2"/><line x1="1400" y1="700" x2="2900" y2="1000" stroke="#000000" stroke-opacity="0.06" stroke-width="2"/><line x1="1520" y1="700" x2="3320" y2="1000" stroke="#000000" stroke-opacity="0.06" stroke-width="2"/><rect x="120" y="100" width="150" height="560" rx="4" fill="#14403E" opacity="0.7"/><rect x="120" y="100" width="150" height="560" rx="4" fill="none" stroke="url(#brass36)" stroke-width="2" opacity="0.4"/><rect x="290" y="100" width="150" height="560" rx="4" fill="#14403E" opacity="0.7"/><rect x="290" y="100" width="150" height="560" rx="4" fill="none" stroke="url(#brass36)" stroke-width="2" opacity="0.4"/><rect x="460" y="100" width="150" height="560" rx="4" fill="#14403E" opacity="0.7"/><rect x="460" y="100" width="150" height="560" rx="4" fill="none" stroke="url(#brass36)" stroke-width="2" opacity="0.4"/><rect x="630" y="100" width="150" height="560" rx="4" fill="#14403E" opacity="0.7"/><rect x="630" y="100" width="150" height="560" rx="4" fill="none" stroke="url(#brass36)" stroke-width="2" opacity="0.4"/><rect x="800" y="100" width="150" height="560" rx="4" fill="#14403E" opacity="0.7"/><rect x="800" y="100" width="150" height="560" rx="4" fill="none" stroke="url(#brass36)" stroke-width="2" opacity="0.4"/><rect x="970" y="100" width="150" height="560" rx="4" fill="#14403E" opacity="0.7"/><rect x="970" y="100" width="150" height="560" rx="4" fill="none" stroke="url(#brass36)" stroke-width="2" opacity="0.4"/><rect x="1140" y="100" width="150" height="560" rx="4" fill="#14403E" opacity="0.7"/><rect x="1140" y="100" width="150" height="560" rx="4" fill="none" stroke="url(#brass36)" stroke-width="2" opacity="0.4"/><rect x="1310" y="100" width="150" height="560" rx="4" fill="#14403E" opacity="0.7"/><rect x="1310" y="100" width="150" height="560" rx="4" fill="none" stroke="url(#brass36)" stroke-width="2" opacity="0.4"/><rect x="420" y="520" width="760" height="200" rx="12" fill="#0F3433" /><rect x="420" y="500" width="760" height="40" rx="10" fill="#14201F" /><rect x="460" y="540" width="680" height="150" fill="#0E2A2B" opacity="0.0"/><rect x="460" y="540" width="680" height="150" fill="url(#jaali36)" opacity="0.6"/><rect x="460" y="540" width="680" height="150" fill="none" stroke="url(#brass36)" stroke-width="4"/><rect x="560" y="200" width="480" height="220" rx="10" fill="#0C2C2B" /><text x="800" y="340" text-anchor="middle" font-family="Georgia, serif" font-size="88" fill="url(#brass36)" opacity="0.9">&#10070;</text><rect x="470" y="150" width="180" height="14" rx="7" fill="url(#brass36)"/><rect x="470" y="164" width="180" height="6" fill="#FFF3CF" opacity="0.7"/><rect x="710" y="150" width="180" height="14" rx="7" fill="url(#brass36)"/><rect x="710" y="164" width="180" height="6" fill="#FFF3CF" opacity="0.7"/><rect x="950" y="150" width="180" height="14" rx="7" fill="url(#brass36)"/><rect x="950" y="164" width="180" height="6" fill="#FFF3CF" opacity="0.7"/><rect x="194" y="644" width="52" height="58" rx="8" fill="#7C2D34"/><rect x="194" y="644" width="52" height="14" rx="6" fill="#9E3B43"/><path d="M220 644 Q 130 504.0 168 474" stroke="#7E8C6A" stroke-width="9" fill="none" stroke-linecap="round"/><path d="M220 644 Q 160 504.0 183 464" stroke="#7E8C6A" stroke-width="9" fill="none" stroke-linecap="round"/><path d="M220 644 Q 190 504.0 201 454" stroke="#7E8C6A" stroke-width="9" fill="none" stroke-linecap="round"/><path d="M220 644 Q 220 504.0 220 444" stroke="#7E8C6A" stroke-width="9" fill="none" stroke-linecap="round"/><path d="M220 644 Q 250 504.0 239 454" stroke="#7E8C6A" stroke-width="9" fill="none" stroke-linecap="round"/><path d="M220 644 Q 280 504.0 257 464" stroke="#7E8C6A" stroke-width="9" fill="none" stroke-linecap="round"/><path d="M220 644 Q 310 504.0 272 474" stroke="#7E8C6A" stroke-width="9" fill="none" stroke-linecap="round"/><rect x="1334" y="644" width="52" height="58" rx="8" fill="#7C2D34"/><rect x="1334" y="644" width="52" height="14" rx="6" fill="#9E3B43"/><path d="M1360 644 Q 1270 504.0 1308 474" stroke="#7E8C6A" stroke-width="9" fill="none" stroke-linecap="round"/><path d="M1360 644 Q 1300 504.0 1323 464" stroke="#7E8C6A" stroke-width="9" fill="none" stroke-linecap="round"/><path d="M1360 644 Q 1330 504.0 1341 454" stroke="#7E8C6A" stroke-width="9" fill="none" stroke-linecap="round"/><path d="M1360 644 Q 1360 504.0 1360 444" stroke="#7E8C6A" stroke-width="9" fill="none" stroke-linecap="round"/><path d="M1360 644 Q 1390 504.0 1379 454" stroke="#7E8C6A" stroke-width="9" fill="none" stroke-linecap="round"/><path d="M1360 644 Q 1420 504.0 1397 464" stroke="#7E8C6A" stroke-width="9" fill="none" stroke-linecap="round"/><path d="M1360 644 Q 1450 504.0 1412 474" stroke="#7E8C6A" stroke-width="9" fill="none" stroke-linecap="round"/>
<ellipse cx="800" cy="300" rx="248" ry="174" fill="url(#glow36)" opacity="0.7"/>

  <rect x="0" y="0" width="1600" height="1000" fill="url(#vig)"/>

  <g opacity="0.16" font-family="Georgia, 'Times New Roman', serif">
    <text x="1560" y="954" text-anchor="end" font-size="190" font-weight="700"
          fill="#FFFFFF" opacity="0.5">36</text>
  </g>
  <g opacity="0.5" font-family="Georgia, serif">
    <rect x="36" y="942" width="234" height="36" rx="18" fill="#000000" opacity="0.22"/>
    <text x="52" y="967" font-size="19" letter-spacing="3" fill="#F6F1E7">VENKATESHWARA &#8226; 36</text>
  </g>
</svg>