<svg xmlns="http://www.w3.org/2000/svg" viewBox="0 0 1600 1000" preserveAspectRatio="xMidYMid slice" role="img" aria-label="Interior illustration 4">

  <defs>
    <linearGradient id="wall4" x1="0" y1="0" x2="0" y2="1">
      <stop offset="0" stop-color="#143C3D"/>
      <stop offset="1" stop-color="#0E2A2B"/>
    </linearGradient>
    <linearGradient id="floor4" x1="0" y1="0" x2="0" y2="1">
      <stop offset="0" stop-color="#7A5234"/>
      <stop offset="1" stop-color="#5A3A28"/>
    </linearGradient>
    <linearGradient id="brass4" x1="0" y1="0" x2="1" y2="1">
      <stop offset="0" stop-color="#E3C77A"/>
      <stop offset="0.5" stop-color="#C9A24B"/>
      <stop offset="1" stop-color="#9A7A2E"/>
    </linearGradient>
    <radialGradient id="glow4" cx="0.5" cy="0.45" r="0.55">
      <stop offset="0" stop-color="#FFF6DD" stop-opacity="0.55"/>
      <stop offset="0.45" stop-color="#FFF6DD" stop-opacity="0.12"/>
      <stop offset="1" stop-color="#FFF6DD" stop-opacity="0"/>
    </radialGradient>
    <pattern id="jaali4" width="56" height="56" patternUnits="userSpaceOnUse" patternTransform="rotate(0)">
      <rect width="56" height="56" fill="none"/>
      <path d="M28 2 L54 28 L28 54 L2 28 Z" fill="none" stroke="#C9A24B" stroke-opacity="0.5" stroke-width="1.4"/>
      <circle cx="28" cy="28" r="6" fill="none" stroke="#C9A24B" stroke-opacity="0.4" stroke-width="1.2"/>
      <path d="M28 14 L42 28 L28 42 L14 28 Z" fill="none" stroke="#C9A24B" stroke-opacity="0.3" stroke-width="1"/>
    </pattern>
    <filter id="soft4" x="-20%" y="-20%" width="140%" height="140%">
      <feGaussianBlur stdDeviation="6"/>
    </filter>
  
    <radialGradient id="vig" cx="0.5" cy="0.45" r="0.75">
      <stop offset="0.6" stop-color="#000000" stop-opacity="0"/>
      <stop offset="1" stop-color="#000000" stop-opacity="0.28"/>
    </radialGradient>
  </defs>
  <rect width="1600" height="1000" fill="url(#wall4)"/>
<rect x="0" y="720" width="1600" height="280" fill="url(#floor4)"/><line x1="80" y1="720" x2="-1720" y2="1000" stroke="#000000" stroke-opacity="0.06" stroke-width="2"/><line x1="200" y1="720" x2="-1300" y2="1000" stroke="#000000" stroke-opacity="0.06" stroke-width="2"/><line x1="320" y1="720" x2="-880" y2="1000" stroke="#000000" stroke-opacity="0.06" stroke-width="2"/><line x1="440" y1="720" x2="-460" y2="1000" stroke="#000000" stroke-opacity="0.06" stroke-width="2"/><line x1="560" y1="720" x2="-40" y2="1000" stroke="#000000" stroke-opacity="0.06" stroke-width="2"/><line x1="680" y1="720" x2="380" y2="1000" stroke="#000000" stroke-opacity="0.06" stroke-width="2"/><line x1="800" y1="720" x2="800" y2="1000" stroke="#000000" stroke-opacity="0.06" stroke-width="2"/><line x1="920" y1="720" x2="1220" y2="1000" stroke="#000000" stroke-opacity="0.06" stroke-width="2"/><line x1="1040" y1="720" x2="1640" y2="1000" stroke="#000000" stroke-opacity="0.06" stroke-width="2"/><line x1="1160" y1="720" x2="2060" y2="1000" stroke="#000000" stroke-opacity="0.06" stroke-width="2"/><line x1="1280" y1="720" x2="2480" y2="1000" stroke="#000000" stroke-opacity="0.06" stroke-width="2"/><line x1="1400" y1="720" x2="2900" y2="1000" stroke="#000000" stroke-opacity="0.06" stroke-width="2"/><line x1="1520" y1="720" x2="3320" y2="1000" stroke="#000000" stroke-opacity="0.06" stroke-width="2"/><rect x="0" y="0" width="1600" height="150" rx="0" fill="#103534" /><rect x="120" y="90" width="1360" height="150" rx="14" fill="#16403E" /><rect x="260" y="150" width="1080" height="130" rx="14" fill="#1C5150" /><circle cx="170" cy="120" r="10" fill="#FFF3CF"/><circle cx="170" cy="120" r="22" fill="url(#glow4)"/><circle cx="320" cy="120" r="10" fill="#FFF3CF"/><circle cx="320" cy="120" r="22" fill="url(#glow4)"/><circle cx="470" cy="120" r="10" fill="#FFF3CF"/><circle cx="470" cy="120" r="22" fill="url(#glow4)"/><circle cx="620" cy="120" r="10" fill="#FFF3CF"/><circle cx="620" cy="120" r="22" fill="url(#glow4)"/><circle cx="770" cy="120" r="10" fill="#FFF3CF"/><circle cx="770" cy="120" r="22" fill="url(#glow4)"/><circle cx="920" cy="120" r="10" fill="#FFF3CF"/><circle cx="920" cy="120" r="22" fill="url(#glow4)"/><circle cx="1070" cy="120" r="10" fill="#FFF3CF"/><circle cx="1070" cy="120" r="22" fill="url(#glow4)"/><circle cx="1220" cy="120" r="10" fill="#FFF3CF"/><circle cx="1220" cy="120" r="22" fill="url(#glow4)"/><circle cx="1370" cy="120" r="10" fill="#FFF3CF"/><circle cx="1370" cy="120" r="22" fill="url(#glow4)"/><line x1="800" y1="0" x2="800" y2="250" stroke="#9A7A2E" stroke-width="3"/><ellipse cx="800" cy="250" rx="60" ry="42.0" fill="url(#brass4)"/><ellipse cx="800" cy="256" rx="42.0" ry="30.0" fill="#FFF3CF" opacity="0.8"/><line x1="590" y1="0" x2="590" y2="274" stroke="#9A7A2E" stroke-width="3"/><ellipse cx="590" cy="274" rx="12" ry="8.399999999999999" fill="url(#brass4)"/><ellipse cx="590" cy="280" rx="8.399999999999999" ry="6.0" fill="#FFF3CF" opacity="0.8"/><line x1="660" y1="0" x2="660" y2="266" stroke="#9A7A2E" stroke-width="3"/><ellipse cx="660" cy="266" rx="12" ry="8.399999999999999" fill="url(#brass4)"/><ellipse cx="660" cy="272" rx="8.399999999999999" ry="6.0" fill="#FFF3CF" opacity="0.8"/><line x1="730" y1="0" x2="730" y2="258" stroke="#9A7A2E" stroke-width="3"/><ellipse cx="730" cy="258" rx="12" ry="8.399999999999999" fill="url(#brass4)"/><ellipse cx="730" cy="264" rx="8.399999999999999" ry="6.0" fill="#FFF3CF" opacity="0.8"/><line x1="800" y1="0" x2="800" y2="250" stroke="#9A7A2E" stroke-width="3"/><ellipse cx="800" cy="250" rx="12" ry="8.399999999999999" fill="url(#brass4)"/><ellipse cx="800" cy="256" rx="8.399999999999999" ry="6.0" fill="#FFF3CF" opacity="0.8"/><line x1="870" y1="0" x2="870" y2="258" stroke="#9A7A2E" stroke-width="3"/><ellipse cx="870" cy="258" rx="12" ry="8.399999999999999" fill="url(#brass4)"/><ellipse cx="870" cy="264" rx="8.399999999999999" ry="6.0" fill="#FFF3CF" opacity="0.8"/><line x1="940" y1="0" x2="940" y2="266" stroke="#9A7A2E" stroke-width="3"/><ellipse cx="940" cy="266" rx="12" ry="8.399999999999999" fill="url(#brass4)"/><ellipse cx="940" cy="272" rx="8.399999999999999" ry="6.0" fill="#FFF3CF" opacity="0.8"/><line x1="1010" y1="0" x2="1010" y2="274" stroke="#9A7A2E" stroke-width="3"/><ellipse cx="1010" cy="274" rx="12" ry="8.399999999999999" fill="url(#brass4)"/><ellipse cx="1010" cy="280" rx="8.399999999999999" ry="6.0" fill="#FFF3CF" opacity="0.8"/><rect x="420" y="560" width="760" height="150" rx="24" fill="#7C2D34" /><rect x="420" y="520" width="760" height="80" rx="24" fill="#9E3B43" /><rect x="1240" y="300" width="250" height="280" fill="#1C5152"/><rect x="1240" y="300" width="250" height="280" fill="none" stroke="url(#brass4)" stroke-width="6"/>
<ellipse cx="800" cy="260" rx="260" ry="182" fill="url(#glow4)" opacity="0.7"/>

  <rect x="0" y="0" width="1600" height="1000" fill="url(#vig)"/>

  <g opacity="0.16" font-family="Georgia, 'Times New Roman', serif">
    <text x="1560" y="954" text-anchor="end" font-size="190" font-weight="700"
          fill="#FFFFFF" opacity="0.5">4</text>
  </g>
  <g opacity="0.5" font-family="Georgia, serif">
    <rect x="36" y="942" width="234" height="36" rx="18" fill="#000000" opacity="0.22"/>
    <text x="52" y="967" font-size="19" letter-spacing="3" fill="#F6F1E7">VENKATESHWARA &#8226; 4</text>
  </g>
</svg>