<svg xmlns="http://www.w3.org/2000/svg" viewBox="0 0 1600 1000" preserveAspectRatio="xMidYMid slice" role="img" aria-label="Interior illustration 6">

  <defs>
    <linearGradient id="wall6" x1="0" y1="0" x2="0" y2="1">
      <stop offset="0" stop-color="#173A45"/>
      <stop offset="1" stop-color="#0E2A2B"/>
    </linearGradient>
    <linearGradient id="floor6" x1="0" y1="0" x2="0" y2="1">
      <stop offset="0" stop-color="#7A5234"/>
      <stop offset="1" stop-color="#5A3A28"/>
    </linearGradient>
    <linearGradient id="brass6" x1="0" y1="0" x2="1" y2="1">
      <stop offset="0" stop-color="#E3C77A"/>
      <stop offset="0.5" stop-color="#C9A24B"/>
      <stop offset="1" stop-color="#9A7A2E"/>
    </linearGradient>
    <radialGradient id="glow6" cx="0.5" cy="0.45" r="0.55">
      <stop offset="0" stop-color="#FFF6DD" stop-opacity="0.55"/>
      <stop offset="0.45" stop-color="#FFF6DD" stop-opacity="0.12"/>
      <stop offset="1" stop-color="#FFF6DD" stop-opacity="0"/>
    </radialGradient>
    <pattern id="jaali6" width="56" height="56" patternUnits="userSpaceOnUse" patternTransform="rotate(0)">
      <rect width="56" height="56" fill="none"/>
      <path d="M28 2 L54 28 L28 54 L2 28 Z" fill="none" stroke="#C9A24B" stroke-opacity="0.5" stroke-width="1.4"/>
      <circle cx="28" cy="28" r="6" fill="none" stroke="#C9A24B" stroke-opacity="0.4" stroke-width="1.2"/>
      <path d="M28 14 L42 28 L28 42 L14 28 Z" fill="none" stroke="#C9A24B" stroke-opacity="0.3" stroke-width="1"/>
    </pattern>
    <filter id="soft6" x="-20%" y="-20%" width="140%" height="140%">
      <feGaussianBlur stdDeviation="6"/>
    </filter>
  
    <radialGradient id="vig" cx="0.5" cy="0.45" r="0.75">
      <stop offset="0.6" stop-color="#000000" stop-opacity="0"/>
      <stop offset="1" stop-color="#000000" stop-opacity="0.28"/>
    </radialGradient>
  </defs>
  <rect width="1600" height="1000" fill="url(#wall6)"/>
<rect x="0" y="700" width="1600" height="300" fill="url(#floor6)"/><line x1="80" y1="700" x2="-1720" y2="1000" stroke="#000000" stroke-opacity="0.06" stroke-width="2"/><line x1="200" y1="700" x2="-1300" y2="1000" stroke="#000000" stroke-opacity="0.06" stroke-width="2"/><line x1="320" y1="700" x2="-880" y2="1000" stroke="#000000" stroke-opacity="0.06" stroke-width="2"/><line x1="440" y1="700" x2="-460" y2="1000" stroke="#000000" stroke-opacity="0.06" stroke-width="2"/><line x1="560" y1="700" x2="-40" y2="1000" stroke="#000000" stroke-opacity="0.06" stroke-width="2"/><line x1="680" y1="700" x2="380" y2="1000" stroke="#000000" stroke-opacity="0.06" stroke-width="2"/><line x1="800" y1="700" x2="800" y2="1000" stroke="#000000" stroke-opacity="0.06" stroke-width="2"/><line x1="920" y1="700" x2="1220" y2="1000" stroke="#000000" stroke-opacity="0.06" stroke-width="2"/><line x1="1040" y1="700" x2="1640" y2="1000" stroke="#000000" stroke-opacity="0.06" stroke-width="2"/><line x1="1160" y1="700" x2="2060" y2="1000" stroke="#000000" stroke-opacity="0.06" stroke-width="2"/><line x1="1280" y1="700" x2="2480" y2="1000" stroke="#000000" stroke-opacity="0.06" stroke-width="2"/><line x1="1400" y1="700" x2="2900" y2="1000" stroke="#000000" stroke-opacity="0.06" stroke-width="2"/><line x1="1520" y1="700" x2="3320" y2="1000" stroke="#000000" stroke-opacity="0.06" stroke-width="2"/><rect x="470" y="180" width="660" height="320" fill="#0E2A2B" opacity="0.0"/><rect x="470" y="180" width="660" height="320" fill="url(#jaali6)" opacity="0.85"/><rect x="470" y="180" width="660" height="320" fill="none" stroke="url(#brass6)" stroke-width="4"/><rect x="470" y="180" width="660" height="60" rx="10" fill="#4A2740" /><ellipse cx="800" cy="880" rx="490.0" ry="75.0" fill="#9E3B43" opacity="0.9"/><ellipse cx="800" cy="880" rx="468.0" ry="59.0" fill="none" stroke="url(#brass6)" stroke-width="3" opacity="0.7"/><rect x="420" y="560" width="760" height="230" rx="18" fill="#3A2A4A" /><rect x="440" y="500" width="720" height="130" rx="18" fill="#EAE2D2" /><rect x="440" y="480" width="720" height="70" rx="18" fill="#F6F1E7" /><rect x="500" y="470" width="120" height="70" rx="14" fill="#D8B9A6" /><rect x="660" y="470" width="120" height="70" rx="14" fill="#D8B9A6" /><rect x="820" y="470" width="120" height="70" rx="14" fill="#D8B9A6" /><rect x="980" y="470" width="120" height="70" rx="14" fill="#D8B9A6" /><rect x="310" y="560" width="100" height="150" rx="10" fill="#5A3A28" /><rect x="342" y="490" width="36" height="80" fill="url(#brass6)"/><path d="M316 490 L404 490 L390 440 L330 440 Z" fill="#E3C77A" opacity="0.9"/><circle cx="360" cy="470" r="40" fill="url(#glow6)"/><rect x="1130" y="560" width="100" height="150" rx="10" fill="#5A3A28" /><rect x="1162" y="490" width="36" height="80" fill="url(#brass6)"/><path d="M1136 490 L1224 490 L1210 440 L1150 440 Z" fill="#E3C77A" opacity="0.9"/><circle cx="1180" cy="470" r="40" fill="url(#glow6)"/>
<ellipse cx="560" cy="470" rx="105" ry="74" fill="url(#glow6)" opacity="0.7"/><ellipse cx="1180" cy="470" rx="105" ry="74" fill="url(#glow6)" opacity="0.7"/>

  <rect x="0" y="0" width="1600" height="1000" fill="url(#vig)"/>

  <g opacity="0.16" font-family="Georgia, 'Times New Roman', serif">
    <text x="1560" y="954" text-anchor="end" font-size="190" font-weight="700"
          fill="#FFFFFF" opacity="0.5">6</text>
  </g>
  <g opacity="0.5" font-family="Georgia, serif">
    <rect x="36" y="942" width="234" height="36" rx="18" fill="#000000" opacity="0.22"/>
    <text x="52" y="967" font-size="19" letter-spacing="3" fill="#F6F1E7">VENKATESHWARA &#8226; 6</text>
  </g>
</svg>