<svg xmlns="http://www.w3.org/2000/svg" viewBox="0 0 1600 1000" preserveAspectRatio="xMidYMid slice" role="img" aria-label="Interior illustration 9">

  <defs>
    <linearGradient id="wall9" x1="0" y1="0" x2="0" y2="1">
      <stop offset="0" stop-color="#16413F"/>
      <stop offset="1" stop-color="#0E2A2B"/>
    </linearGradient>
    <linearGradient id="floor9" x1="0" y1="0" x2="0" y2="1">
      <stop offset="0" stop-color="#5A4632"/>
      <stop offset="1" stop-color="#3C2E20"/>
    </linearGradient>
    <linearGradient id="brass9" x1="0" y1="0" x2="1" y2="1">
      <stop offset="0" stop-color="#E3C77A"/>
      <stop offset="0.5" stop-color="#C9A24B"/>
      <stop offset="1" stop-color="#9A7A2E"/>
    </linearGradient>
    <radialGradient id="glow9" cx="0.5" cy="0.45" r="0.55">
      <stop offset="0" stop-color="#FFF6DD" stop-opacity="0.55"/>
      <stop offset="0.45" stop-color="#FFF6DD" stop-opacity="0.12"/>
      <stop offset="1" stop-color="#FFF6DD" stop-opacity="0"/>
    </radialGradient>
    <pattern id="jaali9" width="56" height="56" patternUnits="userSpaceOnUse" patternTransform="rotate(0)">
      <rect width="56" height="56" fill="none"/>
      <path d="M28 2 L54 28 L28 54 L2 28 Z" fill="none" stroke="#C9A24B" stroke-opacity="0.5" stroke-width="1.4"/>
      <circle cx="28" cy="28" r="6" fill="none" stroke="#C9A24B" stroke-opacity="0.4" stroke-width="1.2"/>
      <path d="M28 14 L42 28 L28 42 L14 28 Z" fill="none" stroke="#C9A24B" stroke-opacity="0.3" stroke-width="1"/>
    </pattern>
    <filter id="soft9" x="-20%" y="-20%" width="140%" height="140%">
      <feGaussianBlur stdDeviation="6"/>
    </filter>
  
    <radialGradient id="vig" cx="0.5" cy="0.45" r="0.75">
      <stop offset="0.6" stop-color="#000000" stop-opacity="0"/>
      <stop offset="1" stop-color="#000000" stop-opacity="0.28"/>
    </radialGradient>
  </defs>
  <rect width="1600" height="1000" fill="url(#wall9)"/>
<rect x="0" y="720" width="1600" height="280" fill="url(#floor9)"/><line x1="80" y1="720" x2="-1720" y2="1000" stroke="#000000" stroke-opacity="0.06" stroke-width="2"/><line x1="200" y1="720" x2="-1300" y2="1000" stroke="#000000" stroke-opacity="0.06" stroke-width="2"/><line x1="320" y1="720" x2="-880" y2="1000" stroke="#000000" stroke-opacity="0.06" stroke-width="2"/><line x1="440" y1="720" x2="-460" y2="1000" stroke="#000000" stroke-opacity="0.06" stroke-width="2"/><line x1="560" y1="720" x2="-40" y2="1000" stroke="#000000" stroke-opacity="0.06" stroke-width="2"/><line x1="680" y1="720" x2="380" y2="1000" stroke="#000000" stroke-opacity="0.06" stroke-width="2"/><line x1="800" y1="720" x2="800" y2="1000" stroke="#000000" stroke-opacity="0.06" stroke-width="2"/><line x1="920" y1="720" x2="1220" y2="1000" stroke="#000000" stroke-opacity="0.06" stroke-width="2"/><line x1="1040" y1="720" x2="1640" y2="1000" stroke="#000000" stroke-opacity="0.06" stroke-width="2"/><line x1="1160" y1="720" x2="2060" y2="1000" stroke="#000000" stroke-opacity="0.06" stroke-width="2"/><line x1="1280" y1="720" x2="2480" y2="1000" stroke="#000000" stroke-opacity="0.06" stroke-width="2"/><line x1="1400" y1="720" x2="2900" y2="1000" stroke="#000000" stroke-opacity="0.06" stroke-width="2"/><line x1="1520" y1="720" x2="3320" y2="1000" stroke="#000000" stroke-opacity="0.06" stroke-width="2"/><rect x="140" y="100" width="1320" height="560" rx="8" fill="#103937" /><rect x="180" y="130" width="150" height="500" rx="6" fill="#15433F" /><rect x="180" y="130" width="150" height="500" rx="6" fill="none" stroke="url(#brass9)" stroke-width="2" opacity="0.5"/><rect x="366" y="130" width="150" height="500" rx="6" fill="#15433F" /><rect x="366" y="130" width="150" height="500" rx="6" fill="none" stroke="url(#brass9)" stroke-width="2" opacity="0.5"/><rect x="552" y="130" width="150" height="500" rx="6" fill="#15433F" /><rect x="552" y="130" width="150" height="500" rx="6" fill="none" stroke="url(#brass9)" stroke-width="2" opacity="0.5"/><rect x="738" y="130" width="150" height="500" rx="6" fill="#15433F" /><rect x="738" y="130" width="150" height="500" rx="6" fill="none" stroke="url(#brass9)" stroke-width="2" opacity="0.5"/><rect x="924" y="130" width="150" height="500" rx="6" fill="#15433F" /><rect x="924" y="130" width="150" height="500" rx="6" fill="none" stroke="url(#brass9)" stroke-width="2" opacity="0.5"/><rect x="1110" y="130" width="150" height="500" rx="6" fill="#15433F" /><rect x="1110" y="130" width="150" height="500" rx="6" fill="none" stroke="url(#brass9)" stroke-width="2" opacity="0.5"/><rect x="1296" y="130" width="150" height="500" rx="6" fill="#15433F" /><rect x="1296" y="130" width="150" height="500" rx="6" fill="none" stroke="url(#brass9)" stroke-width="2" opacity="0.5"/><rect x="520" y="200" width="560" height="320" rx="10" fill="#05100F" /><rect x="520" y="200" width="560" height="320" rx="10" fill="none" stroke="url(#brass9)" stroke-width="6"/><rect x="540" y="220" width="520" height="280" rx="6" fill="#0B2B2A"/><rect x="500" y="180" width="600" height="360" rx="14" fill="url(#glow9)" opacity="0.5"/><rect x="360" y="560" width="880" height="150" rx="10" fill="#5A3A28" /><rect x="380" y="580" width="380" height="110" fill="#0E2A2B" opacity="0.0"/><rect x="380" y="580" width="380" height="110" fill="url(#jaali9)" opacity="0.7"/><rect x="380" y="580" width="380" height="110" fill="none" stroke="url(#brass9)" stroke-width="4"/><rect x="840" y="580" width="380" height="110" fill="#0E2A2B" opacity="0.0"/><rect x="840" y="580" width="380" height="110" fill="url(#jaali9)" opacity="0.7"/><rect x="840" y="580" width="380" height="110" fill="none" stroke="url(#brass9)" stroke-width="4"/><rect x="1300" y="360" width="30" height="300" rx="0" fill="#7A5234" /><rect x="194" y="644" width="52" height="58" rx="8" fill="#7C2D34"/><rect x="194" y="644" width="52" height="14" rx="6" fill="#9E3B43"/><path d="M220 644 Q 130 518.0 168 494" stroke="#7E8C6A" stroke-width="9" fill="none" stroke-linecap="round"/><path d="M220 644 Q 160 518.0 183 484" stroke="#7E8C6A" stroke-width="9" fill="none" stroke-linecap="round"/><path d="M220 644 Q 190 518.0 201 474" stroke="#7E8C6A" stroke-width="9" fill="none" stroke-linecap="round"/><path d="M220 644 Q 220 518.0 220 464" stroke="#7E8C6A" stroke-width="9" fill="none" stroke-linecap="round"/><path d="M220 644 Q 250 518.0 239 474" stroke="#7E8C6A" stroke-width="9" fill="none" stroke-linecap="round"/><path d="M220 644 Q 280 518.0 257 484" stroke="#7E8C6A" stroke-width="9" fill="none" stroke-linecap="round"/><path d="M220 644 Q 310 518.0 272 494" stroke="#7E8C6A" stroke-width="9" fill="none" stroke-linecap="round"/><rect x="1180" y="230" width="0" height="0" fill="none"/><rect x="1180" y="230" width="0" height="0" fill="none" stroke="url(#brass9)" stroke-width="6"/>
<ellipse cx="800" cy="360" rx="186" ry="130" fill="url(#glow9)" opacity="0.7"/>

  <rect x="0" y="0" width="1600" height="1000" fill="url(#vig)"/>

  <g opacity="0.16" font-family="Georgia, 'Times New Roman', serif">
    <text x="1560" y="954" text-anchor="end" font-size="190" font-weight="700"
          fill="#FFFFFF" opacity="0.5">9</text>
  </g>
  <g opacity="0.5" font-family="Georgia, serif">
    <rect x="36" y="942" width="234" height="36" rx="18" fill="#000000" opacity="0.22"/>
    <text x="52" y="967" font-size="19" letter-spacing="3" fill="#F6F1E7">VENKATESHWARA &#8226; 9</text>
  </g>
</svg>